<?xml version="1.0" standalone="no"?>
<!DOCTYPE svg PUBLIC "-//W3C//DTD SVG 1.1//EN" "http://www.w3.org/Graphics/SVG/1.1/DTD/svg11.dtd" >
<svg>
<metadata>
Created by FontForge 20110222 at Wed May  8 19:32:54 2013
 By Orthosie Webhosting
Copyright (c) 2006 by Nate Piekos. Blambot.com. All rights reserved.
</metadata>
<defs>
<font id="AnimeAce2.0BBBold" horiz-adv-x="897" >
  <font-face 
    font-family="AnimeAce2.0BBBold"
    font-weight="700"
    font-stretch="normal"
    units-per-em="1000"
    panose-1="2 0 8 5 0 0 0 2 0 4"
    ascent="800"
    descent="-200"
    x-height="860"
    cap-height="895"
    bbox="-87 -193 1166 1148.48"
    underline-thickness="0"
    underline-position="0"
    unicode-range="U+0020-2320"
  />
<missing-glyph horiz-adv-x="500" 
d="M62 0v996h375v-996h-375zM125 62h250v872h-250v-872z" />
    <glyph glyph-name=".notdef" horiz-adv-x="500" 
d="M62 0v996h375v-996h-375zM125 62h250v872h-250v-872z" />
    <glyph glyph-name=".null" horiz-adv-x="0" 
 />
    <glyph glyph-name="nonmarkingreturn" horiz-adv-x="443" 
 />
    <glyph glyph-name="space" unicode=" " horiz-adv-x="443" 
 />
    <glyph glyph-name="exclam" unicode="!" horiz-adv-x="556" 
d="M596 920q0 -12 -114 -164q-45 -61 -136 -184q-74 -101 -112 -197q-25 -64 -28 -68q-19 -30 -64 -30q-66 0 -66 37q0 21 25 67q6 14 141 302l60 128q37 73 75 119q33 40 115 40q34 0 64 -10q40 -13 40 -40zM159 170q0 -12 -33 -79q-31 -64 -43 -80q-23 -32 -79 -32
q-57 0 -57 40q0 41 46 148q16 37 93 37q73 0 73 -34z" />
    <glyph glyph-name="quotedbl" unicode="&#x22;" horiz-adv-x="579" 
d="M583 901q0 -32 -41 -160q-36 -112 -59 -164q-26 -60 -88 -60q-52 0 -52 49q0 -1 23 101q12 59 48 208q12 33 43 53.5t67 20.5q59 0 59 -48zM343 881q0 -35 -41 -161q-33 -103 -59 -163t-90 -60q-51 0 -51 47q0 24 8 52q6 16 17 50q7 22 21 105q11 60 26 103
q12 34 43 54.5t67 20.5q59 0 59 -48z" />
    <glyph glyph-name="numbersign" unicode="#" horiz-adv-x="845" 
d="M842 567q0 -52 -51 -70q-6 -2 -96 -15q-8 -33 -24 -88q35 8 44 8q27 0 45 -31q14 -26 14 -57q0 -51 -47 -68q-12 -4 -93 -16q-9 -86 -11 -95q-7 -56 -19 -95q-10 -27 -49 -47q-35 -17 -68 -17q-51 0 -51 43q0 27 16 92l25 96q-79 -12 -189 -23q-9 -39 -31 -170
q-8 -29 -46 -49q-34 -19 -66 -19q-58 0 -58 47q0 19 49 174q-19 -2 -27 -2q-34 0 -55 25t-21 60q0 56 53 67q8 2 97 4q14 49 31 99q-12 -1 -22 -1q-40 0 -64 20q-27 23 -27 61q0 74 92 75h71q18 63 73 224q25 75 124 75q48 0 48 -35q0 -29 -41 -125l-57 -132q90 7 159 22
q21 88 30 118q18 64 43 113q7 17 51 27q36 9 70 9q48 0 48 -38q0 -23 -26 -91q-17 -43 -38 -93q22 6 30 6q30 0 48 -30q16 -25 16 -58zM534 459q-65 -9 -174 -22q-16 -49 -33 -109q99 7 183 25z" />
    <glyph glyph-name="dollar" unicode="$" horiz-adv-x="937" 
d="M892 438q0 -47 -28 -97q-127 -231 -386 -346q-4 -48 -12 -65q-13 -30 -50 -50.5t-70 -20.5q-46 0 -46 47q0 15 5 32q-66 -12 -103 -12q-98 0 -146 91q-20 37 -20 61q0 30 31 73t59 43q16 0 36 -27q27 -36 55 -52q47 -27 123 -27q28 127 63 271q-58 3 -210 15
q-75 7 -75 68q0 101 155 234q130 111 252 160q20 67 22 73q38 95 144 95q47 0 47 -40q0 -21 -22 -79q53 7 69 7q67 0 67 -49q0 -16 -6.5 -73.5t-10.5 -69.5q-9 -28 -49 -55.5t-70 -27.5q-40 0 -40 87h-22q-28 -88 -52 -173q44 -3 131 -10q80 -8 128 -28q31 -13 31 -55z
M478 655q-41 -22 -87 -55q-64 -46 -69 -69q7 9 15 9q59 0 110 1q16 57 31 114zM675 307q0 17 -125 37q-25 -96 -50 -218q56 26 108 74q67 61 67 107z" />
    <glyph glyph-name="percent" unicode="%" horiz-adv-x="1008" 
d="M1017 826q0 -32 -62 -85l-45 -38q-74 -66 -161 -152q71 -5 122 -71q49 -61 49 -134q0 -100 -98 -186q-76 -67 -188.5 -110t-202.5 -43q-104 0 -142 52l-66 -84q-45 -46 -91 -46q-81 0 -81 58v10q5 18 303 343q-64 -16 -122 -16q-66 0 -107 23q-53 28 -53 89
q0 115 195 299q140 134 271 134q63 0 110 -45q44 -41 62 -104q61 66 126 129q42 41 92 41q31 0 57 -16q32 -19 32 -48zM561 624q0 86 -73 86q-57 0 -142 -60q-89 -63 -89 -118q0 -36 43 -54q31 -14 74 -14q77 0 129 40q58 45 58 120zM760 300q0 39 -19 65q-20 31 -57 31
q-54 0 -142 -62q-92 -64 -92 -114q0 -35 43 -55q34 -15 75 -15q77 0 130 37q62 41 62 113z" />
    <glyph glyph-name="ampersand" unicode="&#x26;" horiz-adv-x="908" 
d="M863 744q0 -28 -18 -56q-21 -31 -47 -31q-9 0 -60 39.5t-91 39.5q-65 0 -126 -53q-65 -56 -65 -121q0 -27 55 -32q68 -6 87 -24q24 -24 24 -59q0 -77 -88 -89q-44 -4 -133 -14q-68 -10 -118 -58q-59 -57 -59 -113q0 -53 53 -83q45 -26 102 -26q96 0 248 72q20 69 28 150
q2 25 5.5 71.5t11.5 69.5q10 26 49 46q35 16 67 16q51 0 51 -39q0 -56 -51 -256q-37 -146 -74 -264q-12 -37 -47.5 -60t-75.5 -23q-49 0 -49 40q0 14 28 85q-118 -43 -222 -43q-115 0 -206 47q-114 57 -114 161q0 184 303 328q-41 40 -41 98q0 125 180 274q93 77 199 77
q107 0 164 -88q30 -47 30 -82z" />
    <glyph glyph-name="quotesingle" unicode="'" horiz-adv-x="432" 
d="M470 891q0 -7 -1 -13q-5 -19 -103 -146q-41 -53 -81 -107q-65 -77 -103 -77q-27 0 -46.5 14t-19.5 40q0 23 34 69q28 36 81 120q51 79 82 119t81 40q29 0 50 -14q26 -17 26 -45z" />
    <glyph glyph-name="parenleft" unicode="(" horiz-adv-x="702" 
d="M758 868q0 -45 -90 -91l-69 -36q-148 -90 -256 -197q-151 -148 -151 -269q0 -138 196 -207q39 -8 99 -33q25 -18 25 -48q0 -36 -28.5 -76t-62.5 -42q-65 33 -192 103q-85 49 -134 123q-52 79 -52 174q0 191 239 405q91 82 191 155q145 108 202 108q30 0 56.5 -20
t26.5 -49z" />
    <glyph glyph-name="parenright" unicode=")" horiz-adv-x="769" 
d="M729 541q0 -193 -242 -407q-91 -81 -190 -155q-147 -108 -201 -108q-31 0 -57 20.5t-26 49.5q0 41 89 88q60 33 69 37q153 95 256 197q149 147 149 268q0 74 -62 133q-53 50 -132 75q-18 5 -51 14t-48 19q-24 18 -24 47q0 36 28 77t64 43q57 -27 200 -106
q178 -110 178 -292z" />
    <glyph glyph-name="asterisk" unicode="*" horiz-adv-x="533" 
d="M574 829q0 -6 -1 -10q-4 -15 -122 -95q58 -43 58 -78q0 -24 -21.5 -52.5t-45.5 -28.5q-9 0 -71 63q-18 -70 -29 -89q-26 -43 -78 -43q-39 0 -39 30q0 15 16 60q-37 -24 -60 -24t-43 17t-20 39q0 28 58 60q10 6 83 42q-44 23 -96 55q-7 10 -7 25q0 27 22 58t48 31
q8 0 80 -51q0 23 6 68q7 21 37 35q26 14 50 14q39 0 39 -35q0 -11 -17 -88q71 60 89 60q24 0 44 -19t20 -44z" />
    <glyph glyph-name="plus" unicode="+" horiz-adv-x="769" 
d="M710 437q0 -59 -55 -80q-22 -8 -107 -17q-40 -4 -121 -12v-4q0 -18 1.5 -56.5t1.5 -56.5q0 -39 -4 -53q-9 -29 -50 -52q-37 -20 -71 -20q-47 0 -47 50q0 37 23 178l-156 -13q-32 0 -51 24q-16 22 -16 55q0 28 12 49q15 25 40 27q52 -2 95 -2q51 0 99 3l13 96q9 61 18 86
q17 45 52 68t73 23q46 0 46 -35q0 -20 -25 -107l-32 -116q10 2 103 28q65 19 103 19q28 0 42 -29q13 -23 13 -53z" />
    <glyph glyph-name="comma" unicode="," horiz-adv-x="451" 
d="M308 163q0 -7 -1 -12q-4 -17 -103 -144q-41 -54 -82 -107q-66 -78 -102 -78q-26 0 -46.5 15t-20.5 39t33 68q22 30 81 121q58 89 67 100q48 59 96 59q31 0 52 -15q26 -17 26 -46z" />
    <glyph glyph-name="hyphen" unicode="-" horiz-adv-x="743" 
d="M700 431q0 -53 -62 -81q-45 -22 -130 -32q-57 -5 -113 -10q-225 -33 -281 -33q-32 0 -51.5 23.5t-19.5 56.5q0 57 44 71q18 6 90 6q122 0 226 17q29 5 130 34q98 29 111 29q26 0 43 -29q13 -23 13 -52z" />
    <glyph glyph-name="hyphen" unicode="&#x2010;" horiz-adv-x="743" 
d="M700 431q0 -53 -62 -81q-45 -22 -130 -32q-57 -5 -113 -10q-225 -33 -281 -33q-32 0 -51.5 23.5t-19.5 56.5q0 57 44 71q18 6 90 6q122 0 226 17q29 5 130 34q98 29 111 29q26 0 43 -29q13 -23 13 -52z" />
    <glyph glyph-name="period" unicode="." horiz-adv-x="355" 
d="M216 185q0 -14 -33 -82q-31 -62 -44 -82q-24 -36 -80 -36t-56 42q0 39 48 155q16 40 93 40q72 0 72 -37z" />
    <glyph glyph-name="slash" unicode="/" horiz-adv-x="800" 
d="M891 835q0 -9 -1 -15q-6 -19 -80 -88q-34 -28 -98 -86q-307 -283 -524 -545q-28 -37 -105 -129q-30 -35 -69 -35q-31 0 -57 13q-33 16 -33 43q0 28 54 86q25 26 76 79q271 296 531 571q34 38 126 130q38 37 97 37q33 0 55 -14q28 -17 28 -47z" />
    <glyph glyph-name="zero" unicode="0" horiz-adv-x="1119" 
d="M1097 577q0 -168 -115 -324q-103 -141 -263 -229q-164 -90 -325 -90q-153 0 -252 85q-107 89 -107 239q0 169 114 324q103 140 263 230q165 90 326 90q153 0 253 -85q106 -89 106 -240zM890 514q0 106 -63.5 173.5t-170.5 67.5q-165 0 -296 -140.5t-131 -306.5
q0 -107 64 -174t171 -67q165 0 297 142q129 139 129 305z" />
    <glyph glyph-name="one" unicode="1" horiz-adv-x="429" 
d="M437 804q0 -15 -23 -78q-113 -305 -144 -589l-8 -92q-10 -42 -63 -64q-37 -14 -67 -14q-41 0 -41 40q0 65 23 155q15 51 42 152q30 120 79 320q-54 -24 -67 -24q-24 0 -40 28q-14 23 -14 49q0 9 3 19q11 35 72 65q23 12 96 40q81 30 104 30q48 0 48 -37z" />
    <glyph glyph-name="two" unicode="2" horiz-adv-x="843" 
d="M763 494q-5 -85 -64 -140q-80 -74 -337 -238q203 10 287 10q29 0 29 -26q0 -24 -25 -60q-22 -32 -43 -47q-54 -37 -274 -48q-78 -3 -288 -3q-72 0 -72 52q0 32 15 62q26 76 100 95q204 52 339 153q122 91 167 147q26 33 24 111q-2 81 -56 124q-46 38 -117 38
q-113 0 -183 -86q-27 -33 -36 -40q-23 -19 -49 -19q-22 0 -22 34q0 15 4 30q18 64 67.5 135t100.5 105q38 26 96 26q144 0 242 -115q103 -120 95 -300z" />
    <glyph glyph-name="three" unicode="3" horiz-adv-x="858" 
d="M771 324q0 -119 -121 -222q-91 -80 -228 -131.5t-244 -51.5q-46 0 -98.5 9.5t-75.5 22.5q-37 22 -37 64q0 32 19 61.5t49 29.5q12 0 42 -13q74 -33 160 -33q104 0 213 63q125 72 125 168q0 72 -91 72q-24 0 -72.5 -8.5t-72.5 -8.5q-64 0 -64 43q0 49 64 101q24 21 76 35
q57 18 75 30q37 23 49 70q3 12 3 24q0 37 -24.5 57.5t-61.5 20.5q-42 0 -93 -33q-2 -1 -81 -59q-42 -31 -64 -31q-33 0 -33 38q0 56 85 137q56 55 126 91q79 42 146 42q77 0 131 -66q52 -63 52 -141q0 -111 -121 -206q167 -61 167 -175z" />
    <glyph glyph-name="four" unicode="4" horiz-adv-x="896" 
d="M850 351q0 -43 -77 -60q-27 -6 -112 -13q-5 -22 -12 -122q-5 -76 -20 -120q-10 -28 -50 -47q-35 -17 -67 -17q-51 0 -51 46q0 52 18 122q11 40 34 120q-112 -18 -192 -38q-22 -7 -118 -36q-87 -27 -108 -27q-60 0 -60 67q0 8 14 54q15 52 18 63q4 20 13 62q13 56 63 250
q14 60 21 74q36 86 125 86q46 0 46 -38q0 -27 -32 -117q-16 -41 -44 -124q-21 -62 -48 -181q178 49 341 65q44 186 73 298q12 45 19 59q13 32 45.5 51t68.5 19q49 0 49 -38q0 -19 -21 -74q-54 -141 -92 -307q36 2 50 2q35 0 68 -22q38 -23 38 -57z" />
    <glyph glyph-name="five" unicode="5" horiz-adv-x="775" 
d="M821 813q0 -33 -33 -46q-21 -9 -63 -14q-136 -15 -184 -23q-98 -14 -181 -41l-7 -160q316 -20 316 -241q0 -122 -114 -224q-148 -131 -336 -131q-90 0 -156 20q-96 30 -96 100q0 26 12 48q15 25 40 25q12 0 43 -13q85 -34 172 -34q92 0 176 52q96 59 96 145q0 49 -40 79
q-36 28 -87 28q-25 0 -71.5 -10t-71.5 -10q-69 0 -69 97q0 42 3 245q1 80 68 109q184 82 456 82q43 0 81 -19q46 -23 46 -64z" />
    <glyph glyph-name="six" unicode="6" horiz-adv-x="952" 
d="M883 360q0 -104 -149 -225q-225 -184 -431 -184q-127 0 -197 87q-64 80 -64 210q0 151 84 290q78 129 210 221q163 113 381 113q70 0 81 -47l8 -105q1 -7 8 -31q5 -19 5 -30q0 -33 -38 -62t-73 -29q-33 0 -49 43q-5 14 -15 71q-188 -33 -306 -138q-104 -93 -140 -189
q334 108 513 108q172 0 172 -103zM717 284q0 20 -67 20q-107 0 -454 -112q35 -69 142 -69q56 0 125 20q61 17 142 55q112 53 112 86z" />
    <glyph glyph-name="seven" unicode="7" horiz-adv-x="760" 
d="M841 733q0 -12 -22 -39q-141 -173 -222 -281q-118 -156 -199 -300q-16 -37 -58 -106q-27 -35 -81 -35q-30 0 -51 12q-24 15 -24 43q0 35 448 656q-42 1 -81 1q-162 0 -311 -25q-3 -1 -47 -11q-27 -5 -47 -5q-59 0 -59 62q0 103 183 130q61 10 255 10q186 0 245 -24
q36 -14 58 -52q13 -22 13 -36z" />
    <glyph glyph-name="eight" unicode="8" horiz-adv-x="930" 
d="M834 278q0 -127 -134 -226q-98 -73 -249 -119q-142 -44 -258 -44q-224 0 -224 129q0 86 99 207q74 88 172 166q-74 30 -74 108q0 107 193 288q144 134 271 134q75 0 131 -67q53 -62 53 -139q0 -114 -122 -210q63 -31 102.5 -94t39.5 -133zM653 670q0 38 -15 63
q-19 31 -54 31q-59 0 -145 -64q-90 -66 -90 -121q0 -33 42 -50q31 -12 71 -12q75 0 130 38q61 43 61 115zM632 229q0 133 -118 133q-122 0 -266 -117q-80 -65 -80 -109q0 -46 75 -71q54 -17 113 -17q99 0 178 41q98 51 98 140z" />
    <glyph glyph-name="nine" unicode="9" horiz-adv-x="905" 
d="M892 631q0 -45 -28 -110q-88 -210 -118 -388l-10 -66q-6 -39 -15 -64q-11 -29 -52 -51q-37 -20 -71 -20q-50 0 -50 41q0 -7 16 68q17 79 62 285q-188 -90 -382 -90q-216 0 -216 142q0 134 249 346q78 66 169 108q105 49 194 49q92 0 155 -58q97 -89 97 -192zM689 580
q0 133 -119 133q-121 0 -265 -118q-80 -66 -80 -109q0 -47 76 -71q54 -18 114 -18q100 0 178 41q96 51 96 142z" />
    <glyph glyph-name="colon" unicode=":" horiz-adv-x="403" 
d="M327 513q0 -12 -33.5 -82.5t-43.5 -83.5q-24 -35 -80 -35q-57 0 -57 42q0 18 20 77q13 42 29 78q17 40 91 40t74 -36zM205 169q0 -14 -33 -82q-31 -64 -44 -82q-24 -35 -80 -35t-56 42q0 41 48 154q17 40 93 40q72 0 72 -37z" />
    <glyph glyph-name="semicolon" unicode=";" horiz-adv-x="433" 
d="M339 521q0 -13 -33 -83q-33 -65 -45 -84q-24 -34 -80 -34t-56 41t48 156q16 40 92 40q74 0 74 -36zM268 148q0 -8 -1 -12q-5 -19 -103 -146q-41 -53 -81 -106q-66 -77 -104 -77q-26 0 -44 13q-22 15 -22 40q0 19 51 94l64 94q64 98 66 101q47 59 97 59q30 0 51 -15
q26 -16 26 -45z" />
    <glyph glyph-name="less" unicode="&#x3c;" horiz-adv-x="918" 
d="M953 871q0 -43 -86 -85q-21 -10 -65 -32q-293 -164 -537 -363q58 -47 348 -290q27 -23 60 -49q35 -35 35 -65t-28 -70q-31 -43 -60 -43q-19 0 -61 45q-18 20 -55 61q-68 76 -166 156q-108 89 -186 131q-20 9 -63 32q-39 22 -39 54q0 33 29 75t61 46q76 53 560 376
q33 22 119 78q30 17 53 17q30 0 55.5 -22t25.5 -52z" />
    <glyph glyph-name="equal" unicode="=" horiz-adv-x="842" 
d="M746 574q0 -52 -63 -81q-46 -20 -131 -31l-114 -12q-217 -32 -279 -32q-33 0 -52 23.5t-19 56.5q0 56 47 70q21 7 92 7q173 0 349 51q105 30 112 30q28 0 44 -28q14 -24 14 -54zM743 342q0 -50 -63 -78q-47 -21 -133 -32q-56 -5 -111 -11q-223 -34 -281 -34
q-32 0 -51.5 24.5t-19.5 58.5q0 76 100 76h47q128 4 213 17q25 4 130 34q99 29 112 29q26 0 43 -30q14 -25 14 -54z" />
    <glyph glyph-name="greater" unicode="&#x3e;" horiz-adv-x="925" 
d="M862 392q0 -53 -41 -78q-27 -11 -96 -43q-273 -124 -603 -349q-69 -48 -87 -48q-45 0 -45 76q0 51 52 89q20 12 108 64q197 115 511 293q-140 201 -340 360q-33 21 -90 71q-10 13 -10 27q0 34 42 62q37 25 73 25q39 0 72 -33l57 -60l180 -185q103 -107 174 -189
q43 -7 43 -82z" />
    <glyph glyph-name="question" unicode="?" horiz-adv-x="957" 
d="M965 741q0 -181 -247 -282q-172 -70 -403 -87q-28 -54 -36 -61q-19 -21 -68 -21q-61 0 -61 38q0 43 47 148q11 23 23.5 31.5t38.5 8.5h48q9 0 28 -1h20q127 0 236 33q157 50 157 151q0 54 -74 91q-62 31 -122 31q-61 0 -142 -33q-48 -19 -121 -60q-60 -34 -72 -34
q-29 0 -29 33q0 106 186 182q153 63 278 63q116 0 206 -57q107 -66 107 -174zM232 150q0 -9 -30.5 -66.5t-40.5 -65.5q-24 -24 -74 -24q-58 0 -58 34q0 8 5 23l23 68q12 37 38 52q21 13 64 13q73 0 73 -34z" />
    <glyph glyph-name="at" unicode="@" horiz-adv-x="1110" 
d="M1080 597q0 -166 -129 -339q-111 -149 -271 -249q-175 -110 -329 -110q-141 0 -232.5 85.5t-91.5 225.5q0 164 129 339q112 150 271 251q175 110 329 110q140 0 232 -87t92 -226zM886 531q0 96 -48 158q-53 69 -146 69q-82 0 -181 -51q-134 -68 -215 -181
q-87 -122 -87 -263q0 -96 47 -158q52 -68 144 -68q81 0 182 51q134 67 215 180q89 122 89 263zM799 571q0 -36 -28 -171q-17 -87 -44 -137q-35 -62 -99 -105q-91 -59 -207 -59q-62 0 -102 22q-49 27 -49 84q0 85 122 209q101 104 226 104q28 0 59 -5q2 31 -40 31
q-31 0 -89 -11.5t-87 -11.5q-25 0 -41 19t-16 45q0 46 63 63q103 30 207 30q66 0 93 -20q32 -23 32 -87zM624 338q0 18 -10 36t-28 18q-35 0 -108 -44q-78 -46 -78 -77q0 -19 26 -32q21 -10 44 -10q48 0 97 31q57 34 57 78z" />
    <glyph glyph-name="A" unicode="A" 
d="M790 70q0 -36 -46 -68q-42 -30 -80 -30q-36 0 -52 53q-6 21 -13 84q-205 -46 -501 -97q-62 -90 -99 -90q-35 0 -58 34q-18 29 -18 66q0 35 41 82q21 23 65 71q110 125 234 315q70 111 211 331q41 65 112 65q40 0 53 -37q2 -10 7 -71q34 -362 109 -587q11 -30 21 -60
q14 -39 14 -61zM572 277q-18 127 -56 356q-65 -93 -292 -440q185 32 348 84z" />
    <glyph glyph-name="B" unicode="B" horiz-adv-x="880" 
d="M849 677q0 -179 -215 -301q57 -25 95 -67q43 -48 43 -106q0 -142 -251 -220q-127 -39 -323 -39q-120 0 -148 9q-41 13 -41 45q0 54 42 233q29 118 59 236q-35 9 -35 60q0 46 30 87q16 23 67 68q105 95 191 140q111 58 230 58q108 0 177 -46q79 -53 79 -157zM701 613
q0 48 -58 76q-48 23 -102 23q-107 0 -251 -113q-28 -95 -55 -203q275 10 379 92q87 69 87 125zM630 181q0 38 -100 64q-78 21 -133 21q-105 0 -204 -59l-14 -99q103 -6 180 -6q78 0 150 11q121 21 121 68z" />
    <glyph glyph-name="C" unicode="C" horiz-adv-x="887" 
d="M885 840q0 -10 -11 -62q-4 -18 -4 -90q0 -49 -60 -84q-47 -28 -74 -28q-40 0 -40 74q0 9 2 40q-234 -39 -389 -174q-177 -156 -177 -277q0 -62 53 -93q42 -24 109 -24q73 0 185 43q45 17 181 82q90 43 111 43q33 0 33 -38q0 -48 -38 -80q-8 -7 -79 -49
q-294 -174 -489 -174q-103 0 -160 56.5t-57 159.5q0 56 15 108q71 257 311 434q237 174 505 174q73 0 73 -41z" />
    <glyph glyph-name="D" unicode="D" horiz-adv-x="961" 
d="M944 592q0 -240 -255 -417q-205 -143 -477 -193q-33 -4 -119 -21q-73 -16 -70 -16q-39 0 -39 38q0 40 54 260l66 270q-6 15 -6 34q0 84 170 192q86 56 151 83q123 53 231 53q127 0 210.5 -78.5t83.5 -204.5zM755 522q0 84 -57 136q-54 49 -140 49q-132 0 -287 -116
q-80 -243 -107 -468q398 42 540 250q51 74 51 149z" />
    <glyph glyph-name="E" unicode="E" horiz-adv-x="885" 
d="M869 498q0 -7 -2 -13q-13 -39 -96 -48q-351 -41 -544 -98q-27 -117 -40 -228q106 1 225 26q9 2 223 49q27 5 39 5q51 0 51 -37q0 -31 -29.5 -67.5t-60.5 -52.5q-102 -52 -259 -79q-136 -24 -272 -24q-92 0 -92 56q0 50 27 165q21 83 41 166q-27 18 -27 51q0 29 18.5 59
t44.5 42q19 77 61 240q10 38 16 51q13 22 37 38q17 10 64 23q140 40 168 47q81 19 176 19q55 0 79 -5q41 -10 63 -40t22 -60q0 -62 -94 -73q-66 -7 -201 -23q-80 -10 -200 -56q-19 -56 -36 -116q248 64 465 64q38 0 54 -4q25 -6 48 -24q31 -26 31 -53z" />
    <glyph glyph-name="F" unicode="F" horiz-adv-x="798" 
d="M800 494q0 -51 -92 -61q-316 -37 -500 -95q-7 -28 -21 -168q-10 -108 -30 -158q-11 -30 -49 -49q-34 -18 -68 -18q-51 0 -51 43q0 17 22 115q19 85 50 210q-27 17 -27 52q0 31 18.5 62.5t45.5 41.5q14 55 48 192q4 22 19 77q12 34 44 55q20 13 65 25q141 40 169 47
q81 19 175 19q56 0 79 -5q41 -9 63.5 -38.5t22.5 -60.5q0 -63 -95 -74l-202 -22q-87 -14 -200 -56q-17 -58 -33 -113q225 60 422 60q44 0 80 -18q45 -23 45 -63z" />
    <glyph glyph-name="G" unicode="G" horiz-adv-x="994" 
d="M958 385q0 -94 -205 -231q-318 -212 -528 -212q-108 0 -166.5 56t-58.5 162q0 57 17 116q70 253 310 428q236 172 502 172q72 0 72 -42q0 -12 -8 -56q-5 -24 -5 -84t-61 -95q-45 -27 -71 -27q-32 0 -39 45q-3 18 -2 70q-295 -49 -480 -267q-89 -105 -89 -186
q0 -59 46 -88q39 -26 102 -26q114 0 284 71q55 24 114 56q92 51 92 73q0 18 -35 18q-155 0 -436 -61q-32 -6 -44 -6q-41 0 -41 37q0 36 41 79q36 36 76 53q50 22 176 37q101 11 181 11q256 0 256 -103z" />
    <glyph glyph-name="H" unicode="H" 
d="M901 843q0 -6 -2 -14q-43 -100 -94 -269q59 -29 59 -73q0 -31 -35 -48q-26 -12 -63 -13q-47 -178 -59 -269q-3 -29 -10 -89q-10 -38 -47 -61q-33 -22 -75 -22q-51 0 -51 42q0 40 16 97q10 32 26 96q7 26 43 188q-207 -29 -380 -88q-31 -142 -41 -260q-2 -45 -12 -64
q-12 -24 -50 -41q-33 -16 -64 -16q-49 0 -49 45q0 15 9 56q24 97 69 336q41 215 72 334q12 44 22 61q16 30 54 47q34 16 71 16q52 0 52 -41q0 -21 -15 -64q-42 -115 -74 -231q192 55 373 66q28 118 57 215q31 102 148 102q50 0 50 -38z" />
    <glyph glyph-name="I" unicode="I" horiz-adv-x="729" 
d="M765 792q0 -69 -95 -75q-60 -4 -179 -14q-106 -309 -138 -579l94 25q56 15 96 15q43 0 43 -29q0 -27 -28 -61.5t-54 -48.5q-76 -39 -208 -63q-118 -23 -218 -23q-52 0 -71 7q-37 13 -37 53q0 17 5 34q18 68 95 68q11 0 33.5 -1.5t34.5 -1.5q31 0 56 2q39 192 133 558
q-101 -40 -123 -40q-53 0 -53 69q0 41 20 77.5t56 53.5q150 77 356 77q77 0 117 -15q65 -24 65 -88z" />
    <glyph glyph-name="J" unicode="J" horiz-adv-x="940" 
d="M963 791q0 -105 -63 -279q-59 -164 -119 -262q-81 -134 -194 -209q-127 -84 -267 -84q-138 0 -221 95q-79 91 -79 231q0 68 17 124q22 72 98 72q48 0 48 -68q0 -15 -2 -45t-2 -45q0 -92 52.5 -146t145.5 -54q83 0 163.5 49.5t118.5 123.5q33 66 66 191.5t33 196.5v25
q-1 14 -14 14q-40 0 -117 -17t-116 -17q-34 0 -34 37q0 38 28.5 75t65.5 52q80 31 254 31q70 0 96 -12q42 -18 42 -79z" />
    <glyph glyph-name="K" unicode="K" horiz-adv-x="836" 
d="M909 793q0 -10 -2 -15q-9 -23 -67 -64q-43 -30 -281 -209q-154 -114 -245 -186q163 -151 348 -229q32 -19 32 -39q0 -29 -57 -54q-51 -22 -84 -22q-28 0 -221 75q-98 38 -161 93q-9 -79 -13 -93q-25 -86 -122 -86q-50 0 -50 44q0 13 11 59q66 285 159 662q11 44 23 65
q36 65 130 65q52 0 52 -39q0 -23 -20 -74q-11 -25 -31 -75q-33 -85 -72 -224q319 238 496 355q52 34 101 34q74 0 74 -43z" />
    <glyph glyph-name="L" unicode="L" horiz-adv-x="787" 
d="M727 182q0 -34 -30 -70q-26 -31 -59 -49q-91 -48 -258 -78q-149 -26 -272 -26q-94 0 -94 56q0 53 75 375t98 381q34 82 121 82q50 0 50 -39q0 -18 -19 -70q-118 -315 -151 -603q92 1 191 17q61 10 129 27l128 30q23 5 40 5q51 0 51 -38z" />
    <glyph glyph-name="M" unicode="M" horiz-adv-x="1087" 
d="M977 79q0 -37 -43.5 -78t-79.5 -41q-22 0 -36 22q-9 15 -14 253l-6 286q-90 -158 -158 -286l-82 -153q-64 -117 -85 -138q-28 -25 -48 -25q-29 0 -47 36q-13 29 -13 63q0 25 9 45q-4 78 -18 424q-82 -141 -265 -453q-36 -60 -42 -69q-32 -46 -59 -46q-31 0 -50 37
q-13 29 -13 65q0 33 29 75q17 22 51 67q86 121 185 304l168 315q35 66 89 66q43 0 43 -83q0 -18 -2 -54t-2 -54q0 -158 25 -381q127 209 221 396q23 49 86 175q34 65 87 65q45 0 45 -97q0 -24 -7 -92v1l-2 -199q0 -204 18 -330q5 -29 10 -57q6 -35 6 -59z" />
    <glyph glyph-name="N" unicode="N" horiz-adv-x="903" 
d="M981 860q0 -21 -30 -89q-166 -373 -215 -683q-7 -51 -15 -67q-26 -50 -116 -50q-50 0 -50 28q0 4 2 8l-309 500q-83 -261 -105 -433q-1 -9 -10 -85q-10 -37 -58 -57q-34 -15 -62 -15q-49 0 -49 45q0 17 11 57l14 58q91 402 142 594q17 64 32 87q24 35 78 49q25 5 45 5
q38 0 51 -22l299 -505q12 29 78 247q14 50 39 149q59 215 182 215q46 0 46 -36z" />
    <glyph glyph-name="O" unicode="O" horiz-adv-x="1073" 
d="M1074 577q0 -168 -115 -324q-103 -141 -263 -229q-164 -90 -325 -90q-152 0 -253 85q-105 89 -105 239q0 169 114 324q102 140 263 230q165 90 326 90q152 0 252 -85q106 -89 106 -240zM867 514q0 106 -64 173.5t-169 67.5q-165 0 -298 -142q-129 -139 -129 -305
q0 -107 64 -174t170 -67q164 0 296 142q130 139 130 305z" />
    <glyph glyph-name="P" unicode="P" horiz-adv-x="847" 
d="M886 655q0 -208 -264 -343q-189 -98 -447 -134l-6 -86q-4 -54 -14 -79q-14 -38 -52 -57q-34 -17 -73 -17q-47 0 -47 39q0 47 54 260l68 268q-5 15 -5 33q0 53 54 110q31 34 97 82q77 56 137 86q131 65 237 65q108 0 182 -59q79 -63 79 -168zM703 589q0 57 -60 92
q-51 29 -113 29q-110 0 -257 -114q-40 -129 -70 -264q292 13 403 105q97 81 97 152z" />
    <glyph glyph-name="Q" unicode="Q" horiz-adv-x="1107" 
d="M1083 579q0 -128 -72 -256q-65 -113 -172 -206q69 -30 69 -63q0 -25 -31 -45q-27 -19 -54 -19q-25 0 -110 39q-164 -94 -333 -94q-154 0 -252 82q-106 87 -106 238q0 169 113 325q101 141 263 231.5t324 90.5q152 0 254 -84q107 -89 107 -239zM877 508q0 106 -61 176
q-63 73 -168 73q-166 0 -299 -140.5t-133 -307.5q0 -108 63.5 -175t169.5 -67q66 0 133 30q-189 115 -189 238q0 37 26 84q28 53 62 53q18 0 36 -24q33 -44 99 -133q58 -76 113 -121q66 63 105 143q43 87 43 171z" />
    <glyph glyph-name="R" unicode="R" horiz-adv-x="872" 
d="M894 648q0 -169 -187 -294q-139 -92 -342 -141q85 -52 156 -77q26 -6 76 -23q30 -14 30 -36q0 -27 -30 -50t-59 -23q-66 0 -178 35q-98 31 -169 68q0 -34 -10 -100q-10 -29 -46 -49q-32 -18 -67 -18q-55 0 -55 46q0 26 31 162q23 101 83 341q-34 22 -34 70q0 41 52 89
q248 232 474 232q111 0 190 -59q85 -64 85 -173zM725 595q0 56 -58 91q-49 28 -110 28q-110 0 -256 -114q-40 -128 -70 -263q286 11 396 103q98 82 98 155z" />
    <glyph glyph-name="S" unicode="S" horiz-adv-x="965" 
d="M917 448q0 -49 -26 -94q-101 -175 -306.5 -294t-406.5 -119q-71 0 -111 24.5t-66 87.5q-22 51 -22 104q0 42 13 74q17 45 52 45q36 0 56 -45q27 -64 50 -85q51 -45 164 -45q103 0 194 41q98 44 152 124q25 36 25 53q0 8 -14 14q-65 29 -250 40q-90 4 -268 14
q-84 6 -84 71q0 87 148 214q268 231 572 231q72 0 72 -48q0 -96 -13 -142q-9 -28 -52.5 -55t-73.5 -27q-44 0 -45 52l-1 34l-15 1q-93 6 -201 -44q-95 -43 -166 -122q10 2 78 2h19q75 0 250 -15q203 -17 243 -33q33 -14 33 -58z" />
    <glyph glyph-name="T" unicode="T" horiz-adv-x="683" 
d="M800 780q0 -63 -107 -69q-138 -8 -206 -13q-109 -322 -138 -585q-1 -4 -8 -87q-11 -39 -58 -60q-35 -16 -65 -16q-48 0 -48 40q0 23 40 194q59 251 117 481q-159 -53 -182 -53q-32 0 -48 22.5t-16 53.5q0 87 82 124q169 77 436 77q201 0 201 -109z" />
    <glyph glyph-name="U" unicode="U" horiz-adv-x="879" 
d="M926 818q0 -23 -23 -78q-11 -26 -33 -79q-101 -269 -134 -513q-4 -32 -11 -96q-11 -42 -48 -66q-33 -21 -78 -21q-50 0 -50 41q0 12 23 108q-91 -42 -247 -92q-180 -57 -250 -57q-64 0 -64 46q0 10 9 51q45 210 134 579q13 55 41 139q36 80 134 80q56 0 56 -39
q0 -18 -22 -71q-60 -146 -108 -327q-63 -233 -60 -265v-5l1 2q47 1 207 60q125 46 211 85q49 227 79 339q15 55 30 111q23 62 67 89q37 21 78 21q58 0 58 -42z" />
    <glyph glyph-name="V" unicode="V" horiz-adv-x="704" 
d="M786 767q0 -20 -43 -76q-19 -24 -59 -74q-174 -234 -295 -500q-14 -33 -53 -117q-27 -41 -102 -41q-38 0 -54 7q-27 11 -36 41q-5 16 -12 153q-15 304 -15 553q0 85 12 109q21 44 98 44q50 0 50 -71q0 -18 -4 -48q-4 -40 -5 -48q-7 -83 -7 -192q0 -143 15 -278l145 232
q46 75 93 151q53 87 98 146q42 54 106 54q25 0 45 -10q23 -13 23 -35z" />
    <glyph glyph-name="W" unicode="W" horiz-adv-x="1073" 
d="M1166 796q0 -31 -40 -88q-104 -146 -209 -330q-43 -75 -186 -344q-34 -65 -87 -65q-38 0 -45 82q-2 17 -1 108q0 98 -7 144l-26 172q-173 -279 -294 -505q-34 -65 -87 -65q-29 0 -38 30q-3 13 -3 52q0 20 2 53q1 39 1 52q2 79 2 189q0 215 -18 348q0 2 -10 51
q-6 30 -6 49q0 42 42 85t84 43q35 0 44 -65q3 -17 4 -89q-2 84 -2 -142q0 -108 7 -267q66 115 238 381q74 114 129 114q43 0 43 -84q0 -33 17 -194q8 -79 14 -184q63 108 279 473q31 53 36 59q27 38 52 38q33 0 50 -36q15 -29 15 -65z" />
    <glyph glyph-name="X" unicode="X" horiz-adv-x="771" 
d="M848 815q0 -19 -17 -42q-12 -10 -67 -65q-133 -130 -292 -307q32 -61 46 -85q31 -53 52 -81q33 -41 60 -81q5 -10 5 -23q0 -38 -36 -83q-37 -48 -75 -48q-28 0 -92 122q-36 74 -74 149q-109 -128 -159 -199q-18 -28 -71 -98q-24 -31 -73 -31q-32 0 -54 15q-26 18 -26 47
q0 8 1 12q4 19 316 389q-31 60 -93 179q-66 131 -66 175q0 41 31 85.5t71 44.5q36 0 59 -75q14 -42 16 -52q44 -120 93 -225q111 133 132 158q75 89 139 151q37 36 83 36q32 0 59 -18q32 -19 32 -50z" />
    <glyph glyph-name="Y" unicode="Y" horiz-adv-x="821" 
d="M934 815q0 -8 -1 -13q-7 -21 -75 -86q-352 -343 -552 -617q-22 -33 -67 -96q-45 -59 -93 -59q-34 0 -57 15q-27 17 -27 49v11q2 9 234 293l-90 183l-52 102q-30 60 -46 104q-7 22 -7 38q0 35 35.5 81.5t69.5 46.5q20 0 36 -26q1 -4 28 -78q54 -160 136 -321
q48 56 243 283q30 35 110 124q35 37 85 37q32 0 61 -19.5t29 -51.5z" />
    <glyph glyph-name="Z" unicode="Z" horiz-adv-x="898" 
d="M885 765q0 -52 -106 -130q-51 -38 -66 -50q-281 -223 -517 -470q37 -2 76 -2q104 0 396 28q31 3 37 3q64 0 64 -41q0 -32 -36 -62q-29 -26 -64 -37q-156 -50 -462 -50q-126 0 -183 14q-70 16 -70 79q0 44 76 112q18 15 51 46q210 200 519 487h-12q-146 0 -316 -35
q-13 -3 -26 -3q-31 0 -49.5 19t-18.5 51q0 77 84 107q123 44 306 44q111 0 186 -16q131 -27 131 -94z" />
    <glyph glyph-name="bracketleft" unicode="[" horiz-adv-x="672" 
d="M741 966q0 -34 -26 -75q-28 -46 -61 -46q-30 0 -92.5 16t-94.5 16q-34 0 -98 -8q-83 -236 -137 -437q-21 -81 -49 -234q-31 -162 -49 -234q36 -4 65 -4q59 0 142 18q55 11 75 11q44 0 44 -65q0 -73 -46 -93q-30 -13 -230 -13h-38q-33 1 -51 1h-89q-54 0 -54 71
q0 16 17 65q0 3 18 86q107 475 197 800q20 75 41 111q36 64 89 64h85l85 1q-73 0 85 4q73 0 115 -8q57 -13 57 -47z" />
    <glyph glyph-name="backslash" unicode="\" horiz-adv-x="760" 
d="M647 9q0 -34 -43 -55q-34 -17 -72 -17q-47 0 -65 61q-8 32 -26 97q-81 275 -234 554q-17 29 -50 87q-34 63 -34 87q0 32 44 55q37 19 72 19q40 0 63 -23q14 -16 33 -59q84 -193 262 -663q9 -24 30 -73q20 -53 20 -70z" />
    <glyph glyph-name="bracketright" unicode="]" horiz-adv-x="696" 
d="M746 944q0 -38 -17 -106q-66 -251 -173 -605l-62 -201q-8 -23 -26 -86q-1 -12 -6 -36q-10 -33 -33 -59q-28 -32 -57 -32h-84l-83 -1q64 0 -86 -4q-73 -2 -115 8q-58 13 -58 47t26 75q28 45 60 45q30 0 92.5 -15t96.5 -15q32 0 89 6q21 79 75 234t77 236q52 190 99 435
q-51 6 -83 6q-47 0 -131 -19q-58 -12 -76 -12q-43 0 -43 64q0 74 44 95q29 13 234 13h36q33 -1 52 -1h89q63 0 63 -72z" />
    <glyph glyph-name="asciicircum" unicode="^" horiz-adv-x="423" 
d="M510 781q-3 -16 -17 -31t-31 -15q-14 0 -22 12t-21 37q-37 68 -88 120q-63 -77 -119 -142l-21 -24q-26 -31 -54 -26q-40 7 -34 36q1 11 25 35q100 102 173 211q13 16 37 16q38 0 43 -29q24 -31 102 -139q10 -14 21 -28q9 -16 6 -33z" />
    <glyph glyph-name="underscore" unicode="_" horiz-adv-x="950" 
d="M775 -55q0 -66 -58 -80q-6 -1 -81 -4q-141 -5 -342 -5q419 0 -121 -3q-98 -1 -152 14q-75 22 -75 72q0 85 72 85q40 0 185 -14q108 -11 205 -11q62 0 203 17q83 9 95 9q32 0 50.5 -23t18.5 -57z" />
    <glyph glyph-name="grave" unicode="`" horiz-adv-x="389" 
d="M348 591q-34 0 -69 61q-18 32 -80 122q-50 74 -76 122q-14 26 -14 51q0 54 42 81q26 17 53 5l10 -5q15 -10 93 -151q70 -126 90 -171q12 -25 12 -47q0 -24 -18.5 -46t-42.5 -22z" />
    <glyph glyph-name="a" unicode="a" 
d="M790 70q0 -36 -46 -68q-42 -30 -80 -30q-36 0 -52 53q-6 21 -13 84q-205 -46 -501 -97q-62 -90 -99 -90q-35 0 -58 34q-18 29 -18 66q0 35 41 82q21 23 65 71q110 125 234 315q70 111 211 331q41 65 112 65q40 0 53 -37q2 -10 7 -71q34 -362 109 -587q11 -30 21 -60
q14 -39 14 -61zM572 277q-18 127 -56 356q-65 -93 -292 -440q185 32 348 84z" />
    <glyph glyph-name="b" unicode="b" horiz-adv-x="880" 
d="M849 677q0 -179 -215 -301q57 -25 95 -67q43 -48 43 -106q0 -142 -251 -220q-127 -39 -323 -39q-120 0 -148 9q-41 13 -41 45q0 54 42 233q29 118 59 236q-35 9 -35 60q0 46 30 87q16 23 67 68q105 95 191 140q111 58 230 58q108 0 177 -46q79 -53 79 -157zM701 613
q0 48 -58 76q-48 23 -102 23q-107 0 -251 -113q-28 -95 -55 -203q275 10 379 92q87 69 87 125zM630 181q0 38 -100 64q-78 21 -133 21q-105 0 -204 -59l-14 -99q103 -6 180 -6q78 0 150 11q121 21 121 68z" />
    <glyph glyph-name="c" unicode="c" horiz-adv-x="887" 
d="M885 840q0 -10 -11 -62q-4 -18 -4 -90q0 -49 -60 -84q-47 -28 -74 -28q-40 0 -40 74q0 9 2 40q-234 -39 -389 -174q-177 -156 -177 -277q0 -62 53 -93q42 -24 109 -24q73 0 185 43q45 17 181 82q90 43 111 43q33 0 33 -38q0 -48 -38 -80q-8 -7 -79 -49
q-294 -174 -489 -174q-103 0 -160 56.5t-57 159.5q0 56 15 108q71 257 311 434q237 174 505 174q73 0 73 -41z" />
    <glyph glyph-name="d" unicode="d" horiz-adv-x="961" 
d="M944 592q0 -240 -255 -417q-205 -143 -477 -193q-33 -4 -119 -21q-73 -16 -70 -16q-39 0 -39 38q0 40 54 260l66 270q-6 15 -6 34q0 84 170 192q86 56 151 83q123 53 231 53q127 0 210.5 -78.5t83.5 -204.5zM755 522q0 84 -57 136q-54 49 -140 49q-132 0 -287 -116
q-80 -243 -107 -468q398 42 540 250q51 74 51 149z" />
    <glyph glyph-name="e" unicode="e" horiz-adv-x="885" 
d="M869 498q0 -7 -2 -13q-13 -39 -96 -48q-351 -41 -544 -98q-27 -117 -40 -228q106 1 225 26q9 2 223 49q27 5 39 5q51 0 51 -37q0 -31 -29.5 -67.5t-60.5 -52.5q-102 -52 -259 -79q-136 -24 -272 -24q-92 0 -92 56q0 50 27 165q21 83 41 166q-27 18 -27 51q0 29 18.5 59
t44.5 42q19 77 61 240q10 38 16 51q13 22 37 38q17 10 64 23q140 40 168 47q81 19 176 19q55 0 79 -5q41 -10 63 -40t22 -60q0 -62 -94 -73q-66 -7 -201 -23q-80 -10 -200 -56q-19 -56 -36 -116q248 64 465 64q38 0 54 -4q25 -6 48 -24q31 -26 31 -53z" />
    <glyph glyph-name="f" unicode="f" horiz-adv-x="798" 
d="M800 494q0 -51 -92 -61q-316 -37 -500 -95q-7 -28 -21 -168q-10 -108 -30 -158q-11 -30 -49 -49q-34 -18 -68 -18q-51 0 -51 43q0 17 22 115q19 85 50 210q-27 17 -27 52q0 31 18.5 62.5t45.5 41.5q14 55 48 192q4 22 19 77q12 34 44 55q20 13 65 25q141 40 169 47
q81 19 175 19q56 0 79 -5q41 -9 63.5 -38.5t22.5 -60.5q0 -63 -95 -74l-202 -22q-87 -14 -200 -56q-17 -58 -33 -113q225 60 422 60q44 0 80 -18q45 -23 45 -63z" />
    <glyph glyph-name="g" unicode="g" horiz-adv-x="994" 
d="M958 385q0 -94 -205 -231q-318 -212 -528 -212q-108 0 -166.5 56t-58.5 162q0 57 17 116q70 253 310 428q236 172 502 172q72 0 72 -42q0 -12 -8 -56q-5 -24 -5 -84t-61 -95q-45 -27 -71 -27q-32 0 -39 45q-3 18 -2 70q-295 -49 -480 -267q-89 -105 -89 -186
q0 -59 46 -88q39 -26 102 -26q114 0 284 71q55 24 114 56q92 51 92 73q0 18 -35 18q-155 0 -436 -61q-32 -6 -44 -6q-41 0 -41 37q0 36 41 79q36 36 76 53q50 22 176 37q101 11 181 11q256 0 256 -103z" />
    <glyph glyph-name="h" unicode="h" 
d="M901 843q0 -6 -2 -14q-43 -100 -94 -269q59 -29 59 -73q0 -31 -35 -48q-26 -12 -63 -13q-47 -178 -59 -269q-3 -29 -10 -89q-10 -38 -47 -61q-33 -22 -75 -22q-51 0 -51 42q0 40 16 97q10 32 26 96q7 26 43 188q-207 -29 -380 -88q-31 -142 -41 -260q-2 -45 -12 -64
q-12 -24 -50 -41q-33 -16 -64 -16q-49 0 -49 45q0 14 9 56q24 97 69 336q41 215 72 334q12 44 22 61q16 30 54 47q34 16 71 16q52 0 52 -41q0 -21 -15 -64q-42 -115 -74 -231q192 55 373 66q28 118 57 215q31 102 148 102q50 0 50 -38z" />
    <glyph glyph-name="i" unicode="i" horiz-adv-x="367" 
d="M386 820q0 -24 -23 -79q-11 -26 -33 -80q-116 -311 -144 -577q-6 -50 -13 -64q-12 -25 -49 -41q-33 -15 -63 -15q-52 0 -52 43q0 10 12 59q81 343 158 655q12 51 22 70q35 67 131 67q54 0 54 -38z" />
    <glyph glyph-name="j" unicode="j" horiz-adv-x="940" 
d="M963 791q0 -105 -63 -279q-59 -164 -119 -262q-81 -134 -194 -209q-127 -84 -267 -84q-138 0 -221 95q-79 91 -79 231q0 68 17 124q22 72 98 72q48 0 48 -68q0 -15 -2 -45t-2 -45q0 -92 52.5 -146t145.5 -54q83 0 163.5 49.5t118.5 123.5q33 66 66 191.5t33 196.5v25
q-1 14 -14 14q-40 0 -117 -17t-116 -17q-34 0 -34 37q0 38 28.5 75t65.5 52q80 31 254 31q70 0 96 -12q42 -18 42 -79z" />
    <glyph glyph-name="k" unicode="k" horiz-adv-x="836" 
d="M909 793q0 -10 -2 -15q-9 -23 -67 -64q-43 -30 -281 -209q-154 -114 -245 -186q163 -151 348 -229q32 -19 32 -39q0 -29 -57 -54q-51 -22 -84 -22q-28 0 -221 75q-98 38 -161 93q-9 -79 -13 -93q-25 -86 -122 -86q-50 0 -50 44q0 13 11 59q66 285 159 662q11 44 23 65
q36 65 130 65q52 0 52 -39q0 -23 -20 -74q-11 -25 -31 -75q-33 -85 -72 -224q319 238 496 355q52 34 101 34q74 0 74 -43z" />
    <glyph glyph-name="l" unicode="l" horiz-adv-x="787" 
d="M727 182q0 -34 -30 -70q-26 -31 -59 -49q-91 -48 -258 -78q-149 -26 -272 -26q-94 0 -94 56q0 53 75 375t98 381q34 82 121 82q50 0 50 -39q0 -18 -19 -70q-118 -315 -151 -603q92 1 191 17q61 10 129 27l128 30q23 5 40 5q51 0 51 -38z" />
    <glyph glyph-name="m" unicode="m" horiz-adv-x="1087" 
d="M977 79q0 -37 -43.5 -78t-79.5 -41q-22 0 -36 22q-9 15 -14 253l-6 286q-90 -158 -158 -286l-82 -153q-64 -117 -85 -138q-28 -25 -48 -25q-29 0 -47 36q-13 29 -13 63q0 25 9 45q-4 78 -18 424q-82 -141 -265 -453q-36 -60 -42 -69q-32 -46 -59 -46q-31 0 -50 37
q-13 29 -13 65q0 33 29 75q17 22 51 67q86 121 185 304l168 315q35 66 89 66q43 0 43 -83q0 -18 -2 -54t-2 -54q0 -158 25 -381q127 209 221 396q23 49 86 175q34 65 87 65q45 0 45 -97q0 -24 -7 -92v1l-2 -199q0 -204 18 -330q5 -29 10 -57q6 -35 6 -59z" />
    <glyph glyph-name="n" unicode="n" horiz-adv-x="903" 
d="M981 860q0 -21 -30 -89q-166 -373 -215 -683q-7 -51 -15 -67q-26 -50 -116 -50q-50 0 -50 28q0 4 2 8l-309 500q-83 -261 -105 -433q-1 -9 -10 -85q-10 -37 -58 -57q-34 -15 -62 -15q-49 0 -49 45q0 17 11 57l14 58q91 402 142 594q17 64 32 87q24 35 78 49q25 5 45 5
q38 0 51 -22l299 -505q12 29 78 247q14 50 39 149q59 215 182 215q46 0 46 -36z" />
    <glyph glyph-name="o" unicode="o" horiz-adv-x="1073" 
d="M1074 577q0 -168 -115 -324q-103 -141 -263 -229q-164 -90 -325 -90q-152 0 -253 85q-105 89 -105 239q0 169 114 324q102 140 263 230q165 90 326 90q152 0 252 -85q106 -89 106 -240zM867 514q0 106 -64 173.5t-169 67.5q-165 0 -298 -142q-129 -139 -129 -305
q0 -107 64 -174t170 -67q164 0 296 142q130 139 130 305z" />
    <glyph glyph-name="p" unicode="p" horiz-adv-x="847" 
d="M886 655q0 -208 -264 -343q-189 -98 -447 -134l-6 -86q-4 -54 -14 -79q-14 -38 -52 -57q-34 -17 -73 -17q-47 0 -47 39q0 47 54 260l68 268q-5 15 -5 33q0 53 54 110q31 34 97 82q77 56 137 86q131 65 237 65q108 0 182 -59q79 -63 79 -168zM703 589q0 57 -60 92
q-51 29 -113 29q-110 0 -257 -114q-40 -129 -70 -264q292 13 403 105q97 81 97 152z" />
    <glyph glyph-name="q" unicode="q" horiz-adv-x="1107" 
d="M1083 579q0 -128 -72 -256q-65 -113 -172 -206q69 -30 69 -63q0 -25 -31 -45q-27 -19 -54 -19q-25 0 -110 39q-164 -94 -333 -94q-154 0 -252 82q-106 87 -106 238q0 169 113 325q101 141 263 231.5t324 90.5q152 0 254 -84q107 -89 107 -239zM877 508q0 106 -61 176
q-63 73 -168 73q-166 0 -299 -140.5t-133 -307.5q0 -108 63.5 -175t169.5 -67q66 0 133 30q-189 115 -189 238q0 37 26 84q28 53 62 53q18 0 36 -24q33 -44 99 -133q58 -76 113 -121q66 63 105 143q43 87 43 171z" />
    <glyph glyph-name="r" unicode="r" horiz-adv-x="872" 
d="M894 648q0 -169 -187 -294q-139 -92 -342 -141q85 -52 156 -77q26 -6 76 -23q30 -14 30 -36q0 -27 -30 -50t-59 -23q-66 0 -178 35q-98 31 -169 68q0 -34 -10 -100q-10 -29 -46 -49q-32 -18 -67 -18q-55 0 -55 46q0 26 31 162q23 101 83 341q-34 22 -34 70q0 41 52 89
q248 232 474 232q111 0 190 -59q85 -64 85 -173zM725 595q0 56 -58 91q-49 28 -110 28q-110 0 -256 -114q-40 -128 -70 -263q286 11 396 103q98 82 98 155z" />
    <glyph glyph-name="s" unicode="s" horiz-adv-x="965" 
d="M917 448q0 -49 -26 -94q-101 -175 -306.5 -294t-406.5 -119q-71 0 -111 24.5t-66 87.5q-22 51 -22 104q0 42 13 74q17 45 52 45q36 0 56 -45q27 -64 50 -85q51 -45 164 -45q103 0 194 41q98 44 152 124q25 36 25 53q0 8 -14 14q-65 29 -250 40q-90 4 -268 14
q-84 6 -84 71q0 87 148 214q268 231 572 231q72 0 72 -48q0 -96 -13 -142q-9 -28 -52.5 -55t-73.5 -27q-44 0 -45 52l-1 34l-15 1q-93 6 -201 -44q-95 -43 -166 -122q10 2 78 2h19q75 0 250 -15q203 -17 243 -33q33 -14 33 -58z" />
    <glyph glyph-name="t" unicode="t" horiz-adv-x="683" 
d="M800 780q0 -63 -107 -69q-138 -8 -206 -13q-109 -322 -138 -585q-1 -4 -8 -87q-11 -39 -58 -60q-35 -16 -65 -16q-48 0 -48 40q0 23 40 194q59 251 117 481q-159 -53 -182 -53q-32 0 -48 22.5t-16 53.5q0 87 82 124q169 77 436 77q201 0 201 -109z" />
    <glyph glyph-name="u" unicode="u" horiz-adv-x="879" 
d="M926 818q0 -23 -23 -78q-11 -26 -33 -79q-101 -269 -134 -513q-4 -32 -11 -96q-11 -42 -48 -66q-33 -21 -78 -21q-50 0 -50 41q0 12 23 108q-91 -42 -247 -92q-180 -57 -250 -57q-64 0 -64 46q0 10 9 51q45 210 134 579q13 55 41 139q36 80 134 80q56 0 56 -39
q0 -18 -22 -71q-60 -146 -108 -327q-63 -233 -60 -265v-5l1 2q47 1 207 60q125 46 211 85q49 227 79 339q15 55 30 111q23 62 67 89q37 21 78 21q58 0 58 -42z" />
    <glyph glyph-name="v" unicode="v" horiz-adv-x="704" 
d="M786 767q0 -20 -43 -76q-19 -24 -59 -74q-174 -234 -295 -500q-14 -33 -53 -117q-27 -41 -102 -41q-38 0 -54 7q-27 11 -36 41q-5 16 -12 153q-15 304 -15 553q0 85 12 109q21 44 98 44q50 0 50 -71q0 -18 -4 -48q-4 -40 -5 -48q-7 -83 -7 -192q0 -143 15 -278l145 232
q46 75 93 151q53 87 98 146q42 54 106 54q25 0 45 -10q23 -13 23 -35z" />
    <glyph glyph-name="w" unicode="w" horiz-adv-x="1073" 
d="M1166 796q0 -31 -40 -88q-104 -146 -209 -330q-43 -75 -186 -344q-34 -65 -87 -65q-38 0 -45 82q-2 17 -1 108q0 98 -7 144l-26 172q-173 -279 -294 -505q-34 -65 -87 -65q-29 0 -38 30q-3 13 -3 52q0 20 2 53q1 39 1 52q2 79 2 189q0 215 -18 348q0 2 -10 51
q-6 30 -6 49q0 42 42 85t84 43q35 0 44 -65q3 -17 4 -89q-2 84 -2 -142q0 -108 7 -267q66 115 238 381q74 114 129 114q43 0 43 -84q0 -33 17 -194q8 -79 14 -184q63 108 279 473q31 53 36 59q27 38 52 38q33 0 50 -36q15 -29 15 -65z" />
    <glyph glyph-name="x" unicode="x" horiz-adv-x="771" 
d="M848 815q0 -19 -17 -42q-12 -10 -67 -65q-133 -130 -292 -307q32 -61 46 -85q31 -53 52 -81q33 -41 60 -81q5 -10 5 -23q0 -38 -36 -83q-37 -48 -75 -48q-28 0 -92 122q-36 74 -74 149q-109 -128 -159 -199q-18 -28 -71 -98q-24 -31 -73 -31q-32 0 -54 15q-26 18 -26 47
q0 8 1 12q4 19 316 389q-31 60 -93 179q-66 131 -66 175q0 41 31 85.5t71 44.5q36 0 59 -75q14 -42 16 -52q44 -120 93 -225q111 133 132 158q75 89 139 151q37 36 83 36q32 0 59 -18q32 -19 32 -50z" />
    <glyph glyph-name="y" unicode="y" horiz-adv-x="821" 
d="M934 815q0 -8 -1 -13q-7 -21 -75 -86q-352 -343 -552 -617q-22 -33 -67 -96q-45 -59 -93 -59q-34 0 -57 15q-27 17 -27 49v11q2 9 234 293l-90 183l-52 102q-30 60 -46 104q-7 22 -7 38q0 35 35.5 81.5t69.5 46.5q20 0 36 -26q1 -4 28 -78q54 -160 136 -321
q48 56 243 283q30 35 110 124q35 37 85 37q32 0 61 -19.5t29 -51.5z" />
    <glyph glyph-name="z" unicode="z" horiz-adv-x="898" 
d="M885 765q0 -52 -106 -130q-51 -38 -66 -50q-281 -223 -517 -470q37 -2 76 -2q104 0 396 28q31 3 37 3q64 0 64 -41q0 -32 -36 -62q-29 -26 -64 -37q-156 -50 -462 -50q-126 0 -183 14q-70 16 -70 79q0 44 76 112q18 15 51 46q210 200 519 487h-12q-146 0 -316 -35
q-13 -3 -26 -3q-31 0 -49.5 19t-18.5 51q0 77 84 107q123 44 306 44q111 0 186 -16q131 -27 131 -94z" />
    <glyph glyph-name="braceleft" unicode="{" horiz-adv-x="1012" 
d="M955 724q0 -31 -45 -72t-75 -41q-12 0 -23 11q-34 34 -102 101q-38 34 -129 73q-20 9 -47 18q-29 16 -29 36q0 33 42.5 68.5t76.5 35.5q26 0 163 -92q134 -89 160 -119q8 -9 8 -19zM776 467q0 -38 -32 -77q-33 -42 -69 -42q-7 0 -73 8q-104 14 -165 14q-72 0 -229 -19
q-96 -12 -112 -12q-43 0 -43 42q0 44 35.5 79.5t80.5 40.5q23 3 143 7q177 6 299 6q116 0 134 -6q31 -10 31 -41zM814 154q0 -12 -2 -22q-7 -23 -31 -35q-4 -2 -44 -19q-130 -53 -232 -135q-22 -17 -65 -52q-48 -38 -64 -38q-27 0 -41 25q-12 20 -12 49q0 60 94 126
q72 43 145 86q179 110 199 110q26 0 41 -36q12 -27 12 -59z" />
    <glyph glyph-name="bar" unicode="|" horiz-adv-x="373" 
d="M423 938q0 -20 -34 -112q-153 -408 -212 -764q-4 -49 -24 -144q-11 -33 -49 -57.5t-74 -24.5q-48 0 -48 49q0 26 13 72l21 72l190 777q14 55 25 81q43 95 141 95q51 0 51 -44z" />
    <glyph glyph-name="braceright" unicode="}" horiz-adv-x="1048" 
d="M713 869q0 -41 -34 -69.5t-206 -134.5q-176 -109 -200 -109t-40 32q-12 26 -12 55q0 44 26 63q3 2 50 22q75 31 126 59q39 22 108 79q107 88 129 88q27 0 42 -30q11 -25 11 -55zM983 424q0 -45 -34.5 -78.5t-80.5 -40.5q-30 -5 -151 -9q-136 -5 -276 -5q-129 0 -149 6
q-33 10 -33 43q0 37 32.5 77.5t68.5 40.5q10 0 74 -9q106 -14 163 -14q89 0 229 17l113 14q44 0 44 -42zM531 -44q0 -31 -44.5 -67.5t-76.5 -36.5q-24 0 -163 92t-159 118q-7 9 -7 21q0 31 44.5 70.5t75.5 39.5q12 0 24 -9q32 -38 102 -108q36 -29 151 -77q11 -5 38 -17
q15 -11 15 -26z" />
    <glyph glyph-name="asciitilde" unicode="~" horiz-adv-x="734" 
d="M684 499q0 -25 -5 -43q-13 -45 -84.5 -92t-120.5 -47q-44 0 -129.5 41t-111.5 41t-81.5 -40.5t-65.5 -40.5q-41 0 -41 59q0 68 33 104q70 78 146 78q44 0 125.5 -40t125.5 -40q33 0 100.5 47.5l67.5 47.5q41 0 41 -75z" />
    <glyph glyph-name="dieresis" unicode="&#xa8;" horiz-adv-x="443" 
 />
    <glyph glyph-name="copyright" unicode="&#xa9;" horiz-adv-x="1088" 
d="M1078 601q0 -165 -129 -338q-112 -150 -271 -250q-174 -110 -329 -110q-141 0 -233 85.5t-92 225.5q0 164 129 339q113 152 271 252q175 110 329 110q142 0 233.5 -87t91.5 -227zM884 534q0 96 -47 158q-53 71 -146 71q-82 0 -182 -51q-134 -67 -214 -181
q-87 -122 -87 -264q0 -95 47 -158q52 -69 143 -69q81 0 183 53q135 69 215 178q88 122 88 263zM811 525q0 -30 -34 -51q-29 -20 -60 -20q-21 0 -49 29.5t-51 29.5q-51 0 -123.5 -61t-72.5 -111q0 -61 95 -61q42 0 115.5 43t109.5 43q29 0 29 -22q0 -12 -7 -24
q-40 -70 -164 -126q-115 -50 -204 -50q-60 0 -98 26q-43 29 -43 87q0 101 174 280q124 127 238 127q60 0 100 -49q45 -54 45 -90z" />
    <glyph glyph-name="registered" unicode="&#xae;" horiz-adv-x="1087" 
d="M1077 602q0 -165 -129 -339q-111 -150 -271 -250q-174 -110 -329 -110q-141 0 -233 86t-92 226q0 164 129 339q112 150 271 251q175 110 329 110q142 0 232 -85q93 -88 93 -228zM883 535q0 95 -48 158q-54 70 -146 70q-89 0 -199 -62q-100 -55 -165 -132
q-119 -140 -119 -298q0 -96 47 -160q52 -71 144 -71q81 0 183 53q134 69 214 179q89 123 89 263zM811 531q0 -168 -262 -242l101 -63q34 -21 34 -45q0 -37 -46 -37q-20 0 -38 7l-196 80q-5 -63 -13 -82q-18 -38 -70 -38q-40 0 -40 33q0 61 24 148q5 20 41 145q-9 -4 -18 -4
q-17 0 -27.5 18.5t-10.5 36.5q0 30 65 85q134 114 249 114q84 0 140 -36q67 -41 67 -120zM694 501q0 36 -33 56q-27 16 -65 16q-56 0 -119 -36q-30 -88 -49 -174q87 6 160 33q106 39 106 105z" />
    <glyph glyph-name="Agrave" unicode="&#xc0;" 
d="M790 70q0 -36 -46 -68q-42 -30 -80 -30q-36 0 -52 53q-6 21 -13 84q-205 -46 -501 -97q-62 -90 -99 -90q-35 0 -58 34q-18 29 -18 66q0 35 41 82q21 23 65 71q110 125 234 315q69 110 208 327q-16 24 -41 61q-50 73 -76 122q-14 25 -14 51q0 53 42 81q25 16 52 5l10 -5
q15 -11 93 -152q30 -54 52 -94q37 -2 50 -37q2 -10 7 -71q34 -362 109 -587q11 -30 21 -60q14 -39 14 -61zM572 277q-18 127 -56 356q-65 -93 -292 -440q185 32 348 84z" />
    <glyph glyph-name="Aacute" unicode="&#xc1;" 
d="M790 70q0 -36 -46 -68q-42 -30 -80 -30q-36 0 -52 53q-6 21 -13 84q-205 -46 -501 -97q-62 -90 -99 -90q-35 0 -58 34q-18 29 -18 66q0 35 41 82q21 23 65 71q110 125 234 315q70 111 211 331q7 13 17 24q19 34 43 77q78 140 93 151q4 3 11 5q26 12 51 -5q22 -14 35 -42
q7 -19 7 -38q0 -26 -13 -52q-27 -48 -76 -121q2 -16 4 -42q34 -362 109 -587q11 -30 21 -60q14 -39 14 -61zM572 277q-18 127 -56 356q-65 -93 -292 -440q185 32 348 84z" />
    <glyph glyph-name="Acircumflex" unicode="&#xc2;" 
d="M756 892q-3 -17 -17 -31.5t-31 -14.5q-14 0 -22 11.5t-21 36.5q-37 67 -88 121q-64 -78 -119 -143l-21 -23q-26 -33 -54 -27q-40 7 -35 36q2 11 25 35q100 101 174 211q13 16 36 16q38 0 43 -28q25 -31 103 -140q10 -14 20 -27q10 -17 7 -33zM790 70q0 -36 -46 -68
q-42 -30 -80 -30q-36 0 -52 53q-6 21 -13 84q-205 -46 -501 -97q-62 -90 -99 -90q-35 0 -58 34q-18 29 -18 66q0 35 41 82q21 23 65 71q110 125 234 315q70 111 211 331q41 65 112 65q40 0 53 -37q2 -10 7 -71q34 -362 109 -587q11 -30 21 -60q14 -39 14 -61zM572 277
q-18 127 -56 356q-65 -93 -292 -440q185 32 348 84z" />
    <glyph glyph-name="Atilde" unicode="&#xc3;" 
d="M790 70q0 -36 -46 -68q-42 -30 -80 -30q-36 0 -52 53q-6 21 -13 84q-205 -46 -501 -97q-62 -90 -99 -90q-35 0 -58 34q-18 29 -18 66q0 35 41 82q21 23 65 71q110 125 234 315q70 111 211 331q24 39 59 54q-49 24 -64 24q-17 0 -51 -24.5t-40 -24.5q-25 0 -25 36
q0 42 20 64q43 47 90 47q26 0 76 -24.5t77 -24.5q21 0 62.5 29.5l41.5 29.5q24 0 24 -46q0 -16 -3 -26q-8 -29 -52 -57q-29 -20 -52 -25l2 -4q2 -10 7 -71q34 -362 109 -587q11 -30 21 -60q14 -39 14 -61zM572 277q-18 127 -56 356q-65 -93 -292 -440q185 32 348 84z" />
    <glyph glyph-name="Adieresis" unicode="&#xc4;" 
d="M820 1028q0 -10 -24 -61q-24 -46 -34 -63q-18 -26 -61 -26q-42 0 -42 31q0 30 36 117q13 31 71 31q54 0 54 -29zM559 1032q0 -11 -25 -61q-23 -47 -34 -64q-18 -26 -61 -26q-42 0 -42 32q0 29 37 116q12 31 70 31q55 0 55 -28zM790 70q0 -36 -46 -68q-42 -30 -80 -30
q-36 0 -52 53q-6 21 -13 84q-205 -46 -501 -97q-62 -90 -99 -90q-35 0 -58 34q-18 29 -18 66q0 35 41 82q21 23 65 71q110 125 234 315q70 111 211 331q41 65 112 65q40 0 53 -37q2 -10 7 -71q34 -362 109 -587q11 -30 21 -60q14 -39 14 -61zM572 277q-18 127 -56 356
q-65 -93 -292 -440q185 32 348 84z" />
    <glyph glyph-name="Aring" unicode="&#xc5;" 
d="M790 70q0 -36 -46 -68q-42 -30 -80 -30q-36 0 -52 53q-6 21 -13 84q-205 -46 -501 -97q-62 -90 -99 -90q-35 0 -58 34q-18 29 -18 66q0 35 41 82q21 23 65 71q110 125 234 315q70 111 211 331q11 20 26 33q-27 21 -27 58q0 54 47.5 96.5t101.5 42.5q35 0 59 -21t24 -56
q0 -70 -71 -115q3 -5 5 -10q2 -10 7 -71q34 -362 109 -587q11 -30 21 -60q14 -39 14 -61zM637 961q0 32 -31 32q-25 0 -46 -23t-21 -48q0 -31 30 -31q26 0 47 22.5t21 47.5zM572 277q-18 127 -56 356q-65 -93 -292 -440q185 32 348 84z" />
    <glyph glyph-name="Egrave" unicode="&#xc8;" horiz-adv-x="885" 
d="M869 498q0 -7 -2 -13q-13 -39 -96 -48q-351 -41 -544 -98q-27 -117 -40 -228q106 1 225 26q8 2 223 49q27 5 39 5q51 0 51 -37q0 -31 -29.5 -67.5t-60.5 -52.5q-102 -52 -259 -79q-136 -24 -272 -24q-92 0 -92 56q0 50 27 165q21 83 41 166q-27 18 -27 51q0 29 18.5 59
t44.5 42q19 77 61 240q10 38 16 51q13 22 37 38q17 10 64 23l91 27l-19 27q-51 74 -76 122q-14 25 -14 51q0 54 42 81q26 16 52 5q7 -3 11 -5q15 -11 93 -151q31 -57 53 -98q53 7 111 7q55 0 79 -5q41 -10 63 -40t22 -60q0 -62 -94 -73q-66 -7 -201 -23q-80 -10 -200 -56
q-19 -56 -36 -116q248 64 465 64q38 0 54 -4q25 -6 48 -24q31 -26 31 -53z" />
    <glyph glyph-name="Eacute" unicode="&#xc9;" horiz-adv-x="885" 
d="M869 498q0 -7 -2 -13q-13 -39 -96 -48q-351 -41 -544 -98q-27 -117 -40 -228q106 1 225 26q8 2 223 49q27 5 39 5q51 0 51 -37q0 -31 -29.5 -67.5t-60.5 -52.5q-102 -52 -259 -79q-136 -24 -272 -24q-92 0 -92 56q0 50 27 165q21 83 41 166q-27 18 -27 51q0 29 18.5 59
t44.5 42q19 77 61 240q10 38 16 51q13 22 37 38q17 10 64 23l117 33q24 45 61 112q78 140 92 151q4 3 11 6q27 11 52 -6q22 -14 34 -42q8 -19 8 -39q0 -29 -28 -79q-7 -12 -47 -71q22 1 44 1q55 0 79 -5q41 -10 63 -40t22 -60q0 -62 -94 -73q-66 -7 -201 -23
q-80 -10 -200 -56q-19 -56 -36 -116q248 64 465 64q38 0 54 -4q25 -6 48 -24q31 -26 31 -53z" />
    <glyph glyph-name="Ecircumflex" unicode="&#xca;" horiz-adv-x="885" 
d="M869 498q0 -7 -2 -13q-13 -39 -96 -48q-351 -41 -544 -98q-27 -117 -40 -228q106 1 225 26q8 2 223 49q27 5 39 5q51 0 51 -37q0 -31 -29.5 -67.5t-60.5 -52.5q-102 -52 -259 -79q-136 -24 -272 -24q-92 0 -92 56q0 50 27 165q21 83 41 166q-27 18 -27 51q0 29 18.5 59
t44.5 42q19 77 61 240q10 38 16 51q13 22 37 38q15 9 54 20q-4 7 -2 16q2 11 26 34q99 102 173 212q13 16 37 16q38 0 43 -29q25 -31 103 -139q11 -14 26 -43q62 -5 90 -43q22 -30 22 -60q0 -62 -94 -73q-66 -7 -201 -23q-80 -10 -200 -56q-19 -56 -36 -116q248 64 465 64
q38 0 54 -4q25 -6 48 -24q31 -26 31 -53zM590 887q-34 57 -78 104q-63 -76 -118 -140q53 14 68 18q60 14 128 18z" />
    <glyph glyph-name="Edieresis" unicode="&#xcb;" horiz-adv-x="885" 
d="M804 1073q0 -11 -25 -61q-23 -46 -34 -63q-17 -26 -60 -26q-42 0 -42 31q0 30 36 117q12 31 70 31q55 0 55 -29zM542 1077q0 -11 -24 -61q-24 -47 -35 -64q-17 -26 -60 -26q-42 0 -42 32q0 29 36 116q13 30 70 30q55 0 55 -27zM869 498q0 -7 -2 -13q-13 -39 -96 -48
q-351 -41 -544 -98q-27 -117 -40 -228q106 1 225 26q8 2 223 49q27 5 39 5q51 0 51 -37q0 -31 -29.5 -67.5t-60.5 -52.5q-102 -52 -259 -79q-136 -24 -272 -24q-92 0 -92 56q0 50 27 165q21 83 41 166q-27 18 -27 51q0 29 18.5 59t44.5 42q19 77 61 240q10 38 16 51
q13 22 37 38q17 10 64 23q140 40 168 47q81 19 176 19q55 0 79 -5q41 -10 63 -40t22 -60q0 -62 -94 -73q-66 -7 -201 -23q-80 -10 -200 -56q-19 -56 -36 -116q248 64 465 64q38 0 54 -4q25 -6 48 -24q31 -26 31 -53z" />
    <glyph glyph-name="Igrave" unicode="&#xcc;" horiz-adv-x="729" 
d="M765 792q0 -69 -95 -75q-60 -4 -179 -14q-106 -309 -138 -579l94 25q56 15 96 15q43 0 43 -29q0 -27 -28 -61.5t-54 -48.5q-76 -39 -208 -63q-118 -23 -218 -23q-52 0 -71 7q-37 13 -37 53q0 17 5 34q18 68 95 68q11 0 33.5 -1.5t34.5 -1.5q31 0 56 2q39 192 133 558
q-101 -40 -123 -40q-53 0 -53 69q0 41 20 77.5t56 53.5q14 7 29 14q-45 66 -69 112q-15 26 -14 51q0 54 42 81q25 17 52 5l10 -5q15 -11 93 -151l26 -48q87 18 187 18q77 0 117 -15q65 -24 65 -88z" />
    <glyph glyph-name="Iacute" unicode="&#xcd;" horiz-adv-x="729" 
d="M765 792q0 -69 -95 -75q-60 -4 -179 -14q-106 -309 -138 -579l94 25q56 15 96 15q43 0 43 -29q0 -27 -28 -61.5t-54 -48.5q-76 -39 -208 -63q-118 -23 -218 -23q-52 0 -71 7q-37 13 -37 53q0 17 5 34q18 68 95 68q11 0 33.5 -1.5t34.5 -1.5q31 0 56 2q39 192 133 558
q-101 -40 -123 -40q-53 0 -53 69q0 41 20 77.5t56 53.5q75 38 164 57q16 30 36 65q78 141 93 152q3 3 10 6q27 10 52 -6q22 -15 34 -42q8 -20 8 -39q1 -33 -53 -116h12q76 0 117 -15q65 -24 65 -88z" />
    <glyph glyph-name="Icircumflex" unicode="&#xce;" horiz-adv-x="729" 
d="M765 792q0 -69 -95 -75q-60 -4 -179 -14q-106 -309 -138 -579l94 25q56 15 96 15q43 0 43 -29q0 -27 -28 -61.5t-54 -48.5q-76 -39 -208 -63q-118 -23 -218 -23q-52 0 -71 7q-37 13 -37 53q0 17 5 34q18 68 95 68q11 0 33.5 -1.5t34.5 -1.5q31 0 56 2q39 192 133 558
q-101 -40 -123 -40q-53 0 -53 69q0 41 20 77.5t56 53.5q18 10 38 18l10 12q100 102 174 212q13 15 36 15q39 0 43 -28q39 -52 116 -155q34 -4 56 -12q65 -24 65 -88zM540 894q-27 41 -61 76l-76 -92q65 13 137 16z" />
    <glyph glyph-name="Idieresis" unicode="&#xcf;" horiz-adv-x="729" 
d="M721 1066q0 -10 -26 -61q-22 -46 -33 -63q-18 -26 -60 -26q-43 0 -43 31t37 117q12 31 70 31q55 0 55 -29zM459 1070q0 -10 -25 -61q-23 -47 -34 -64q-17 -26 -60 -26q-42 0 -42 32q0 29 36 116q13 31 70 31q55 0 55 -28zM765 792q0 -69 -95 -75q-60 -4 -179 -14
q-106 -309 -138 -579l94 25q56 15 96 15q43 0 43 -29q0 -27 -28 -61.5t-54 -48.5q-76 -39 -208 -63q-118 -23 -218 -23q-52 0 -71 7q-37 13 -37 53q0 17 5 34q18 68 95 68q11 0 33.5 -1.5t34.5 -1.5q31 0 56 2q39 192 133 558q-101 -40 -123 -40q-53 0 -53 69q0 41 20 77.5
t56 53.5q150 77 356 77q77 0 117 -15q65 -24 65 -88z" />
    <glyph glyph-name="Ntilde" unicode="&#xd1;" horiz-adv-x="903" 
d="M786 950q0 -15 -3 -26q-8 -28 -52 -56.5t-73 -28.5q-27 0 -80 25t-67 25q-17 0 -51 -25t-40 -25q-25 0 -25 36q0 42 20 64q43 47 90 47q26 0 76 -24.5t77 -24.5q21 0 62.5 29.5l41.5 29.5q24 0 24 -46zM981 860q0 -21 -30 -89q-166 -373 -215 -683q-7 -51 -15 -67
q-26 -50 -116 -50q-50 0 -50 28q0 4 2 8l-309 500q-83 -261 -105 -433q-1 -9 -10 -85q-10 -37 -58 -57q-34 -15 -62 -15q-49 0 -49 45q0 17 11 57l14 58q91 402 142 594q17 64 32 87q24 35 78 49q25 5 45 5q38 0 51 -22l299 -505q12 29 78 247q14 50 39 149q59 215 182 215
q46 0 46 -36z" />
    <glyph glyph-name="Ograve" unicode="&#xd2;" horiz-adv-x="1073" 
d="M1074 577q0 -168 -115 -324q-103 -141 -263 -229q-164 -90 -325 -90q-152 0 -253 85q-105 89 -105 239q0 169 114 324q102 140 263 230q131 72 260 86q-43 65 -66 109q-14 25 -14 50q0 54 42 82q26 16 52 5q7 -3 11 -5q14 -11 93 -152q31 -55 52 -96q84 -20 148 -74
q106 -90 106 -240zM867 514q0 106 -64 173.5t-169 67.5q-165 0 -298 -142q-129 -139 -129 -305q0 -107 64 -174t170 -67q164 0 296 142q130 139 130 305z" />
    <glyph glyph-name="Oacute" unicode="&#xd3;" horiz-adv-x="1073" 
d="M1074 577q0 -168 -115 -324q-103 -141 -263 -229q-164 -90 -325 -90q-152 0 -253 85q-105 89 -105 239q0 164 110 318q73 103 178 179q3 12 9 25q20 45 90 171q79 141 93 152q4 2 11 5q26 11 52 -5q22 -15 34 -42q8 -20 8 -40q1 -29 -29 -79q-7 -11 -47 -72q97 32 194 32
q152 0 252 -85q106 -89 106 -240zM867 514q0 106 -64 173.5t-169 67.5q-165 0 -298 -142q-129 -139 -129 -305q0 -107 64 -174t170 -67q164 0 296 142q130 139 130 305z" />
    <glyph glyph-name="Ocircumflex" unicode="&#xd4;" horiz-adv-x="1073" 
d="M1074 577q0 -168 -115 -324q-103 -141 -263 -229q-164 -90 -325 -90q-152 0 -253 85q-105 89 -105 239q0 184 134 351q122 150 303 233q7 10 20 22q99 102 174 212q12 16 36 16q38 0 43 -29q25 -31 103 -139q11 -13 26 -42q64 -22 116 -65q106 -90 106 -240zM740 901
q-30 46 -66 85l-81 -96q61 12 123 12q12 0 24 -1zM867 514q0 106 -64 173.5t-169 67.5q-165 0 -298 -142q-129 -139 -129 -305q0 -107 64 -174t170 -67q164 0 296 142q130 139 130 305z" />
    <glyph glyph-name="Otilde" unicode="&#xd5;" horiz-adv-x="1073" 
d="M1074 577q0 -168 -115 -324q-103 -141 -263 -229q-164 -90 -325 -90q-152 0 -253 85q-105 89 -105 239q0 169 114 324q102 140 263 230q129 71 256 86l-7 3q-57 28 -75 28t-55.5 -27.5t-43.5 -27.5q-28 0 -28 40q0 46 22 70q48 52 99 52q29 0 84 -27t86 -27
q22 0 67.5 32.5l45.5 32.5q27 0 27 -51q0 -17 -3 -28q-10 -35 -72 -72q102 -16 175 -79q106 -90 106 -240zM867 514q0 106 -64 173.5t-169 67.5q-165 0 -298 -142q-129 -139 -129 -305q0 -107 64 -174t170 -67q164 0 296 142q130 139 130 305z" />
    <glyph glyph-name="Odieresis" unicode="&#xd6;" horiz-adv-x="1073" 
d="M956 1058q0 -11 -24 -62q-24 -46 -35 -62q-17 -27 -60 -27q-42 0 -42 31t36 118q13 30 70 30q55 0 55 -28zM694 1062q0 -11 -24 -62q-24 -47 -34 -63q-18 -27 -61 -27q-42 0 -42 32q0 30 36 117q13 30 71 30q54 0 54 -27zM1074 577q0 -168 -115 -324q-103 -141 -263 -229
q-164 -90 -325 -90q-152 0 -253 85q-105 89 -105 239q0 169 114 324q102 140 263 230q165 90 326 90q152 0 252 -85q106 -89 106 -240zM867 514q0 106 -64 173.5t-169 67.5q-165 0 -298 -142q-129 -139 -129 -305q0 -107 64 -174t170 -67q164 0 296 142q130 139 130 305z
" />
    <glyph glyph-name="Ugrave" unicode="&#xd9;" horiz-adv-x="879" 
d="M591 621q-33 0 -69 62q-18 31 -80 122q-49 73 -76 122q-13 25 -13 51q0 53 42 81q25 16 51 4q7 -2 11 -4q15 -11 93 -152q70 -126 91 -171q11 -25 11 -47q0 -24 -18.5 -46t-42.5 -22zM926 818q0 -23 -23 -78q-11 -26 -33 -79q-101 -269 -134 -513q-4 -32 -11 -96
q-11 -42 -48 -66q-33 -21 -78 -21q-50 0 -50 41q0 12 23 108q-91 -42 -247 -92q-180 -57 -250 -57q-64 0 -64 46q0 10 9 51q45 210 134 579q13 55 41 139q36 80 134 80q56 0 56 -39q0 -18 -22 -71q-60 -146 -108 -327q-63 -233 -60 -265v-5l1 2q47 1 207 60q125 46 211 85
q49 227 79 339q15 55 30 111q23 62 67 89q37 21 78 21q58 0 58 -42z" />
    <glyph glyph-name="Uacute" unicode="&#xda;" horiz-adv-x="879" 
d="M731 992q0 -25 -13 -51q-27 -48 -76 -122q-62 -90 -80 -122q-36 -61 -69 -61q-38 0 -56 45q-5 10 -5 23q0 22 11 47q21 45 91 171q78 140 93 151q4 3 11 5q26 12 51 -5q42 -27 42 -81zM926 818q0 -23 -23 -78q-11 -26 -33 -79q-101 -269 -134 -513q-4 -32 -11 -96
q-11 -42 -48 -66q-33 -21 -78 -21q-50 0 -50 41q0 12 23 108q-91 -42 -247 -92q-180 -57 -250 -57q-64 0 -64 46q0 10 9 51q45 210 134 579q13 55 41 139q36 80 134 80q56 0 56 -39q0 -18 -22 -71q-60 -146 -108 -327q-63 -233 -60 -265v-5l1 2q47 1 207 60q125 46 211 85
q49 227 79 339q15 55 30 111q23 62 67 89q37 21 78 21q58 0 58 -42z" />
    <glyph glyph-name="Ucircumflex" unicode="&#xdb;" horiz-adv-x="879" 
d="M926 818q0 -23 -23 -78q-11 -26 -33 -79q-101 -269 -134 -513q-4 -32 -11 -96q-11 -42 -48 -66q-33 -21 -78 -21q-50 0 -50 41q0 12 23 108q-91 -42 -247 -92q-180 -57 -250 -57q-64 0 -64 46q0 10 9 51q45 210 134 579q13 55 41 139q36 80 134 80q56 0 56 -39
q0 -18 -22 -71q-60 -146 -108 -327q-63 -233 -60 -265v-5l1 2q47 1 207 60q125 46 211 85q49 227 79 339q11 43 23 86q15 55 34 80q-11 18 -16 30q-37 67 -88 121q-64 -77 -119 -143l-20 -23q-27 -32 -55 -26q-40 7 -35 36q2 11 25 34q100 102 174 212q13 16 36 16
q38 0 43 -29q26 -31 104 -139q10 -13 25 -40q22 6 44 6q58 0 58 -42z" />
    <glyph glyph-name="Udieresis" unicode="&#xdc;" horiz-adv-x="879" 
d="M820 1028q0 -10 -24 -61q-24 -46 -34 -63q-18 -26 -61 -26q-42 0 -42 31q0 30 36 117q13 31 71 31q54 0 54 -29zM559 1032q0 -11 -25 -61q-23 -47 -34 -64q-18 -26 -61 -26q-42 0 -42 32q0 29 37 116q12 31 70 31q55 0 55 -28zM926 818q0 -23 -23 -78q-11 -26 -33 -79
q-101 -269 -134 -513q-4 -32 -11 -96q-11 -42 -48 -66q-33 -21 -78 -21q-50 0 -50 41q0 12 23 108q-91 -42 -247 -92q-180 -57 -250 -57q-64 0 -64 46q0 10 9 51q45 210 134 579q13 55 41 139q36 80 134 80q56 0 56 -39q0 -18 -22 -71q-60 -146 -108 -327q-63 -233 -60 -265
v-5l1 2q47 1 207 60q125 46 211 85q49 227 79 339q15 55 30 111q23 62 67 89q37 21 78 21q58 0 58 -42z" />
    <glyph glyph-name="Yacute" unicode="&#xdd;" horiz-adv-x="821" 
d="M688 989q0 -25 -13 -51q-27 -48 -76 -122q-62 -90 -80 -122q-36 -61 -69 -61q-38 0 -56 45q-5 10 -5 23q0 22 11 47q21 45 91 171q78 141 93 151q4 3 11 5q26 12 51 -5q42 -27 42 -81zM934 815q0 -8 -1 -13q-7 -21 -75 -86q-352 -343 -552 -617q-22 -33 -67 -96
q-45 -59 -93 -59q-34 0 -57 15q-27 17 -27 49v11q2 9 234 293l-90 183l-52 102q-30 60 -46 104q-7 22 -7 38q0 35 35.5 81.5t69.5 46.5q20 0 36 -26q1 -4 28 -78q54 -160 136 -321q48 56 243 283q30 35 110 124q35 37 85 37q32 0 61 -19.5t29 -51.5z" />
    <glyph glyph-name="agrave" unicode="&#xe0;" 
d="M790 70q0 -36 -46 -68q-42 -30 -80 -30q-36 0 -52 53q-6 21 -13 84q-205 -46 -501 -97q-62 -90 -99 -90q-35 0 -58 34q-18 29 -18 66q0 35 41 82q21 23 65 71q110 125 234 315q69 110 208 327q-16 24 -41 61q-50 73 -76 122q-14 24 -14 50q-1 54 42 82q25 16 52 5l10 -5
q15 -11 93 -152q30 -54 52 -94q37 -2 50 -37q2 -10 7 -71q34 -362 109 -587q11 -30 21 -60q14 -39 14 -61zM572 277q-18 127 -56 356q-65 -93 -292 -440q185 32 348 84z" />
    <glyph glyph-name="aacute" unicode="&#xe1;" 
d="M790 70q0 -36 -46 -68q-42 -30 -80 -30q-36 0 -52 53q-6 21 -13 84q-205 -46 -501 -97q-62 -90 -99 -90q-35 0 -58 34q-18 29 -18 66q0 35 41 82q21 23 65 71q110 125 234 315q70 111 211 331q7 13 17 24q19 34 43 77q78 140 93 151q4 3 11 5q26 12 51 -5q22 -14 35 -42
q7 -19 7 -39q0 -25 -13 -51q-27 -48 -76 -121q2 -16 4 -42q34 -362 109 -587q11 -30 21 -60q14 -39 14 -61zM572 277q-18 127 -56 356q-65 -93 -292 -440q185 32 348 84z" />
    <glyph glyph-name="acircumflex" unicode="&#xe2;" 
d="M756 892q-3 -17 -17 -31.5t-31 -14.5q-14 0 -22 11.5t-21 36.5q-37 67 -88 121q-64 -78 -119 -143l-21 -23q-26 -33 -54 -27q-40 7 -35 36q2 11 25 35q100 101 174 211q13 16 36 16q38 0 43 -28q25 -31 103 -140q10 -14 20 -27q10 -17 7 -33zM790 70q0 -36 -46 -68
q-42 -30 -80 -30q-36 0 -52 53q-6 21 -13 84q-205 -46 -501 -97q-62 -90 -99 -90q-35 0 -58 34q-18 29 -18 66q0 35 41 82q21 23 65 71q110 125 234 315q70 111 211 331q41 65 112 65q40 0 53 -37q2 -10 7 -71q34 -362 109 -587q11 -30 21 -60q14 -39 14 -61zM572 277
q-18 127 -56 356q-65 -93 -292 -440q185 32 348 84z" />
    <glyph glyph-name="atilde" unicode="&#xe3;" 
d="M790 70q0 -36 -46 -68q-42 -30 -80 -30q-36 0 -52 53q-6 21 -13 84q-205 -46 -501 -97q-62 -90 -99 -90q-35 0 -58 34q-18 29 -18 66q0 35 41 82q21 23 65 71q110 125 234 315q70 111 211 331q24 39 59 54q-49 24 -64 24q-17 0 -51 -24.5t-40 -24.5q-25 0 -25 36
q0 42 20 64q43 47 90 47q26 0 76 -24.5t77 -24.5q21 0 62.5 29.5l41.5 29.5q24 0 24 -46q0 -16 -3 -26q-8 -29 -52 -57q-29 -20 -52 -25l2 -4q2 -10 7 -71q34 -362 109 -587q11 -30 21 -60q14 -39 14 -61zM572 277q-18 127 -56 356q-65 -93 -292 -440q185 32 348 84z" />
    <glyph glyph-name="adieresis" unicode="&#xe4;" 
d="M820 1028q0 -10 -24 -61q-24 -46 -34 -63q-18 -26 -61 -26q-42 0 -42 31q0 30 36 117q13 31 71 31q54 0 54 -29zM559 1032q0 -11 -25 -61q-23 -47 -34 -64q-18 -26 -61 -26q-42 0 -42 32q0 29 37 116q12 31 70 31q55 0 55 -28zM790 70q0 -36 -46 -68q-42 -30 -80 -30
q-36 0 -52 53q-6 21 -13 84q-205 -46 -501 -97q-62 -90 -99 -90q-35 0 -58 34q-18 29 -18 66q0 35 41 82q21 23 65 71q110 125 234 315q70 111 211 331q41 65 112 65q40 0 53 -37q2 -10 7 -71q34 -362 109 -587q11 -30 21 -60q14 -39 14 -61zM572 277q-18 127 -56 356
q-65 -93 -292 -440q185 32 348 84z" />
    <glyph glyph-name="aring" unicode="&#xe5;" 
d="M790 70q0 -36 -46 -68q-42 -30 -80 -30q-36 0 -52 53q-6 21 -13 84q-205 -46 -501 -97q-62 -90 -99 -90q-35 0 -58 34q-18 29 -18 66q0 35 41 82q21 23 65 71q110 125 234 315q70 111 211 331q11 20 26 33q-27 21 -27 58q0 54 47.5 96.5t101.5 42.5q35 0 59 -21t24 -56
q0 -70 -71 -115q3 -5 5 -10q2 -10 7 -71q34 -362 109 -587q11 -30 21 -60q14 -39 14 -61zM637 961q0 32 -31 32q-25 0 -46 -23t-21 -48q0 -31 30 -31q26 0 47 22.5t21 47.5zM572 277q-18 127 -56 356q-65 -93 -292 -440q185 32 348 84z" />
    <glyph glyph-name="egrave" unicode="&#xe8;" horiz-adv-x="885" 
d="M869 498q0 -7 -2 -13q-13 -39 -96 -48q-351 -41 -544 -98q-27 -117 -40 -228q106 1 225 26q8 2 223 49q27 5 39 5q51 0 51 -37q0 -31 -29.5 -67.5t-60.5 -52.5q-102 -52 -259 -79q-136 -24 -272 -24q-92 0 -92 56q0 50 27 165q21 83 41 166q-27 18 -27 51q0 29 18.5 59
t44.5 42q19 77 61 240q10 38 16 51q13 22 37 38q17 10 64 23l91 27l-19 27q-51 74 -76 122q-14 24 -14 50q-1 54 42 82q26 16 52 5q7 -3 11 -5q15 -11 93 -151q31 -57 53 -98q53 7 111 7q55 0 79 -5q41 -10 63 -40t22 -60q0 -62 -94 -73q-66 -7 -201 -23q-80 -10 -200 -56
q-19 -56 -36 -116q248 64 465 64q38 0 54 -4q25 -6 48 -24q31 -26 31 -53z" />
    <glyph glyph-name="eacute" unicode="&#xe9;" horiz-adv-x="885" 
d="M869 498q0 -7 -2 -13q-13 -39 -96 -48q-351 -41 -544 -98q-27 -117 -40 -228q106 1 225 26q8 2 223 49q27 5 39 5q51 0 51 -37q0 -31 -29.5 -67.5t-60.5 -52.5q-102 -52 -259 -79q-136 -24 -272 -24q-92 0 -92 56q0 50 27 165q21 83 41 166q-27 18 -27 51q0 29 18.5 59
t44.5 42q19 77 61 240q10 38 16 51q13 22 37 38q17 10 64 23l117 33q24 45 61 112q78 140 92 151q4 3 11 6q27 11 52 -6q22 -14 34 -42q8 -19 8 -39q0 -29 -28 -79q-7 -12 -47 -71q22 1 44 1q55 0 79 -5q41 -10 63 -40t22 -60q0 -62 -94 -73q-66 -7 -201 -23
q-80 -10 -200 -56q-19 -56 -36 -116q248 64 465 64q38 0 54 -4q25 -6 48 -24q31 -26 31 -53z" />
    <glyph glyph-name="ecircumflex" unicode="&#xea;" horiz-adv-x="885" 
d="M869 498q0 -7 -2 -13q-13 -39 -96 -48q-351 -41 -544 -98q-27 -117 -40 -228q106 1 225 26q8 2 223 49q27 5 39 5q51 0 51 -37q0 -31 -29.5 -67.5t-60.5 -52.5q-102 -52 -259 -79q-136 -24 -272 -24q-92 0 -92 56q0 50 27 165q21 83 41 166q-27 18 -27 51q0 29 18.5 59
t44.5 42q19 77 61 240q10 38 16 51q13 22 37 38q15 9 54 20q-4 7 -2 16q2 11 26 34q99 102 173 212q13 16 37 16q38 0 43 -29q25 -31 103 -139q11 -14 26 -43q62 -5 90 -43q22 -30 22 -60q0 -62 -94 -73q-66 -7 -201 -23q-80 -10 -200 -56q-19 -56 -36 -116q248 64 465 64
q38 0 54 -4q25 -6 48 -24q31 -26 31 -53zM590 887q-34 57 -78 104q-63 -76 -118 -140q53 14 68 18q60 14 128 18z" />
    <glyph glyph-name="edieresis" unicode="&#xeb;" horiz-adv-x="885" 
d="M804 1073q0 -11 -25 -61q-23 -46 -34 -63q-17 -26 -60 -26q-42 0 -42 31q0 30 36 117q12 31 70 31q55 0 55 -29zM542 1077q0 -11 -24 -61q-24 -47 -35 -64q-17 -26 -60 -26q-42 0 -42 32q0 29 36 116q13 30 70 30q55 0 55 -27zM869 498q0 -7 -2 -13q-13 -39 -96 -48
q-351 -41 -544 -98q-27 -117 -40 -228q106 1 225 26q8 2 223 49q27 5 39 5q51 0 51 -37q0 -31 -29.5 -67.5t-60.5 -52.5q-102 -52 -259 -79q-136 -24 -272 -24q-92 0 -92 56q0 50 27 165q21 83 41 166q-27 18 -27 51q0 29 18.5 59t44.5 42q19 77 61 240q10 38 16 51
q13 22 37 38q17 10 64 23q140 40 168 47q81 19 176 19q55 0 79 -5q41 -10 63 -40t22 -60q0 -62 -94 -73q-66 -7 -201 -23q-80 -10 -200 -56q-19 -56 -36 -116q248 64 465 64q38 0 54 -4q25 -6 48 -24q31 -26 31 -53z" />
    <glyph glyph-name="igrave" unicode="&#xec;" horiz-adv-x="367" 
d="M371 682q-16 0 -28 10q-123 -292 -157 -608q-6 -50 -13 -64q-12 -25 -49 -41q-33 -15 -63 -15q-52 0 -52 43q0 10 12 59q81 343 158 655q12 51 22 70q14 27 42 44l-20 30q-51 74 -77 122q-13 26 -13 51q0 54 42 81q25 17 52 5l10 -5q15 -11 93 -151q70 -126 91 -171
q12 -26 12 -47q0 -24 -18.5 -46t-43.5 -22z" />
    <glyph glyph-name="iacute" unicode="&#xed;" horiz-adv-x="367" 
d="M505 1022q0 -25 -14 -50q-26 -49 -76 -122l-31 -46q-6 -30 -25 -73q-28 -67 -29 -70q-116 -311 -144 -577q-6 -50 -13 -64q-12 -25 -49 -41q-33 -15 -63 -15q-52 0 -52 43q0 10 12 59q81 343 158 655q12 51 22 70q15 27 43 44q25 47 64 117q78 141 92 152q4 1 11 4
q26 12 52 -4q42 -28 42 -82z" />
    <glyph glyph-name="icircumflex" unicode="&#xee;" horiz-adv-x="367" 
d="M488 853q-3 -17 -17 -32t-31 -15q-13 0 -21.5 12t-21.5 36q-37 68 -87 122q-64 -78 -120 -144l-20 -23q-26 -32 -55 -27q-40 7 -35 37q2 10 25 35q100 101 174 211q13 15 36 15q39 0 43 -28q26 -31 104 -140q10 -14 19 -27q10 -17 7 -32zM386 820q0 -24 -23 -79
q-11 -26 -33 -80q-116 -311 -144 -577q-6 -50 -13 -64q-12 -25 -49 -41q-33 -15 -63 -15q-52 0 -52 43q0 10 12 59q81 343 158 655q12 51 22 70q35 67 131 67q54 0 54 -38z" />
    <glyph glyph-name="idieresis" unicode="&#xef;" horiz-adv-x="367" 
d="M567 1019q0 -11 -24 -62q-23 -46 -34 -62q-18 -27 -61 -27q-42 0 -42 31t36 118q13 30 71 30q54 0 54 -28zM306 1022q0 -10 -25 -61q-23 -47 -34 -64q-18 -26 -60 -26t-42 32q0 30 36 117q12 30 70 30q55 0 55 -28zM386 820q0 -24 -23 -79q-11 -26 -33 -80
q-116 -311 -144 -577q-6 -50 -13 -64q-12 -25 -49 -41q-33 -15 -63 -15q-52 0 -52 43q0 10 12 59q81 343 158 655q12 51 22 70q35 67 131 67q54 0 54 -38z" />
    <glyph glyph-name="ntilde" unicode="&#xf1;" horiz-adv-x="1000" 
 />
    <glyph glyph-name="ograve" unicode="&#xf2;" horiz-adv-x="1073" 
d="M1074 577q0 -168 -115 -324q-103 -141 -263 -229q-164 -90 -325 -90q-152 0 -253 85q-105 89 -105 239q0 169 114 324q102 140 263 230q131 72 260 86q-43 65 -66 109q-14 25 -14 50q0 54 42 82q26 16 52 5q7 -3 11 -5q14 -11 93 -152q31 -55 52 -96q84 -20 148 -74
q106 -90 106 -240zM867 514q0 106 -64 173.5t-169 67.5q-165 0 -298 -142q-129 -139 -129 -305q0 -107 64 -174t170 -67q164 0 296 142q130 139 130 305z" />
    <glyph glyph-name="oacute" unicode="&#xf3;" horiz-adv-x="1073" 
d="M1074 577q0 -168 -115 -324q-103 -141 -263 -229q-164 -90 -325 -90q-152 0 -253 85q-105 89 -105 239q0 164 110 318q73 103 178 179q3 12 9 25q20 45 90 171q79 141 93 152q4 2 11 5q26 11 52 -5q22 -15 34 -42q8 -20 8 -40q0 -29 -29 -79q-7 -11 -47 -72q97 32 194 32
q152 0 252 -85q106 -89 106 -240zM867 514q0 106 -64 173.5t-169 67.5q-165 0 -298 -142q-129 -139 -129 -305q0 -107 64 -174t170 -67q164 0 296 142q130 139 130 305z" />
    <glyph glyph-name="ocircumflex" unicode="&#xf4;" horiz-adv-x="1073" 
d="M1074 577q0 -168 -115 -324q-103 -141 -263 -229q-164 -90 -325 -90q-152 0 -253 85q-105 89 -105 239q0 184 134 351q122 150 303 233q7 10 20 22q99 102 174 212q12 16 36 16q38 0 43 -29q25 -31 103 -139q11 -13 26 -42q64 -22 116 -65q106 -90 106 -240zM740 901
q-30 46 -66 85l-81 -96q61 12 123 12q12 0 24 -1zM867 514q0 106 -64 173.5t-169 67.5q-165 0 -298 -142q-129 -139 -129 -305q0 -107 64 -174t170 -67q164 0 296 142q130 139 130 305z" />
    <glyph glyph-name="otilde" unicode="&#xf5;" horiz-adv-x="1073" 
d="M1074 577q0 -168 -115 -324q-103 -141 -263 -229q-164 -90 -325 -90q-152 0 -253 85q-105 89 -105 239q0 169 114 324q102 140 263 230q129 71 256 86l-7 3q-57 28 -75 28t-55.5 -27.5t-43.5 -27.5q-28 0 -28 40q0 46 22 70q48 52 99 52q29 0 84 -27t86 -27
q22 0 67.5 32.5l45.5 32.5q27 0 27 -51q0 -17 -3 -28q-10 -35 -72 -72q102 -16 175 -79q106 -90 106 -240zM867 514q0 106 -64 173.5t-169 67.5q-165 0 -298 -142q-129 -139 -129 -305q0 -107 64 -174t170 -67q164 0 296 142q130 139 130 305z" />
    <glyph glyph-name="odieresis" unicode="&#xf6;" horiz-adv-x="1073" 
d="M956 1058q0 -11 -24 -62q-24 -46 -35 -62q-17 -27 -60 -27q-42 0 -42 31t36 118q13 30 70 30q55 0 55 -28zM694 1062q0 -11 -24 -62q-24 -47 -34 -63q-18 -27 -61 -27q-42 0 -42 32q0 30 36 117q13 30 71 30q54 0 54 -27zM1074 577q0 -168 -115 -324q-103 -141 -263 -229
q-164 -90 -325 -90q-152 0 -253 85q-105 89 -105 239q0 169 114 324q102 140 263 230q165 90 326 90q152 0 252 -85q106 -89 106 -240zM867 514q0 106 -64 173.5t-169 67.5q-165 0 -298 -142q-129 -139 -129 -305q0 -107 64 -174t170 -67q164 0 296 142q130 139 130 305z
" />
    <glyph glyph-name="ugrave" unicode="&#xf9;" horiz-adv-x="879" 
d="M591 621q-33 0 -69 62q-18 31 -80 122q-49 73 -76 122q-13 25 -13 51q0 53 42 81q25 16 51 4q7 -2 11 -4q15 -11 93 -152q70 -126 91 -171q11 -25 11 -47q0 -24 -18.5 -46t-42.5 -22zM926 818q0 -23 -23 -78q-11 -26 -33 -79q-101 -269 -134 -513q-4 -32 -11 -96
q-11 -42 -48 -66q-33 -21 -78 -21q-50 0 -50 41q0 12 23 108q-91 -42 -247 -92q-180 -57 -250 -57q-64 0 -64 46q0 10 9 51q45 210 134 579q13 55 41 139q36 80 134 80q56 0 56 -39q0 -18 -22 -71q-60 -146 -108 -327q-63 -233 -60 -265v-5l1 2q47 1 207 60q125 46 211 85
q49 227 79 339q15 55 30 111q23 62 67 89q37 21 78 21q58 0 58 -42z" />
    <glyph glyph-name="uacute" unicode="&#xfa;" horiz-adv-x="879" 
d="M731 991q0 -25 -13 -50q-27 -48 -76 -122q-62 -90 -80 -122q-36 -61 -69 -61q-38 0 -56 45q-5 10 -5 23q0 22 11 47q21 45 91 171q78 140 93 151q4 3 11 5q26 12 51 -5q43 -27 42 -82zM926 818q0 -23 -23 -78q-11 -26 -33 -79q-101 -269 -134 -513q-4 -32 -11 -96
q-11 -42 -48 -66q-33 -21 -78 -21q-50 0 -50 41q0 12 23 108q-91 -42 -247 -92q-180 -57 -250 -57q-64 0 -64 46q0 10 9 51q45 210 134 579q13 55 41 139q36 80 134 80q56 0 56 -39q0 -18 -22 -71q-60 -146 -108 -327q-63 -233 -60 -265v-5l1 2q47 1 207 60q125 46 211 85
q49 227 79 339q15 55 30 111q23 62 67 89q37 21 78 21q58 0 58 -42z" />
    <glyph glyph-name="ucircumflex" unicode="&#xfb;" horiz-adv-x="879" 
d="M926 818q0 -23 -23 -78q-11 -26 -33 -79q-101 -269 -134 -513q-4 -32 -11 -96q-11 -42 -48 -66q-33 -21 -78 -21q-50 0 -50 41q0 12 23 108q-91 -42 -247 -92q-180 -57 -250 -57q-64 0 -64 46q0 10 9 51q45 210 134 579q13 55 41 139q36 80 134 80q56 0 56 -39
q0 -18 -22 -71q-60 -146 -108 -327q-63 -233 -60 -265v-5l1 2q47 1 207 60q125 46 211 85q49 227 79 339q11 43 23 86q15 55 34 80q-11 18 -16 30q-37 67 -88 121q-64 -77 -119 -143l-20 -23q-27 -32 -55 -26q-40 7 -35 36q2 11 25 34q100 102 174 212q13 16 36 16
q38 0 43 -29q26 -31 104 -139q10 -13 25 -40q22 6 44 6q58 0 58 -42z" />
    <glyph glyph-name="udieresis" unicode="&#xfc;" horiz-adv-x="879" 
d="M820 1028q0 -10 -24 -61q-24 -46 -34 -63q-18 -26 -61 -26q-42 0 -42 31q0 30 36 117q13 31 71 31q54 0 54 -29zM559 1032q0 -11 -25 -61q-23 -47 -34 -64q-18 -26 -61 -26q-42 0 -42 32q0 29 37 116q12 31 70 31q55 0 55 -28zM926 818q0 -23 -23 -78q-11 -26 -33 -79
q-101 -269 -134 -513q-4 -32 -11 -96q-11 -42 -48 -66q-33 -21 -78 -21q-50 0 -50 41q0 12 23 108q-91 -42 -247 -92q-180 -57 -250 -57q-64 0 -64 46q0 10 9 51q45 210 134 579q13 55 41 139q36 80 134 80q56 0 56 -39q0 -18 -22 -71q-60 -146 -108 -327q-63 -233 -60 -265
v-5l1 2q47 1 207 60q125 46 211 85q49 227 79 339q15 55 30 111q23 62 67 89q37 21 78 21q58 0 58 -42z" />
    <glyph glyph-name="yacute" unicode="&#xfd;" horiz-adv-x="821" 
d="M677 986q0 -25 -14 -50q-26 -49 -76 -123q-62 -90 -80 -122q-35 -61 -69 -61q-38 0 -56 45q-5 11 -5 24q0 21 12 46q20 45 90 171q79 141 93 151q4 3 11 6q26 11 52 -6q42 -27 42 -81zM934 815q0 -8 -1 -13q-7 -21 -75 -86q-352 -343 -552 -617q-22 -33 -67 -96
q-45 -59 -93 -59q-34 0 -57 15q-27 17 -27 49v11q2 9 234 293l-90 183l-52 102q-30 60 -46 104q-7 22 -7 38q0 35 35.5 81.5t69.5 46.5q20 0 36 -26q1 -4 28 -78q54 -160 136 -321q48 56 243 283q30 35 110 124q35 37 85 37q32 0 61 -19.5t29 -51.5z" />
    <glyph glyph-name="ydieresis" unicode="&#xff;" horiz-adv-x="821" 
d="M739 980q0 -10 -24 -61q-24 -46 -34 -63q-18 -26 -61 -26q-42 0 -42 31t36 118q13 30 71 30q54 0 54 -29zM478 984q0 -10 -25 -61q-23 -47 -34 -64q-18 -26 -61 -26q-42 0 -42 32q0 30 37 116q12 31 70 31q55 0 55 -28zM934 815q0 -8 -1 -13q-7 -21 -75 -86
q-352 -343 -552 -617q-22 -33 -67 -96q-45 -59 -93 -59q-34 0 -57 15q-27 17 -27 49v11q2 9 234 293l-90 183l-52 102q-30 60 -46 104q-7 22 -7 38q0 35 35.5 81.5t69.5 46.5q20 0 36 -26q1 -4 28 -78q54 -160 136 -321q48 56 243 283q30 35 110 124q35 37 85 37
q32 0 61 -19.5t29 -51.5z" />
    <glyph glyph-name="Ydieresis" unicode="&#x178;" horiz-adv-x="821" 
d="M756 979q0 -11 -25 -62q-23 -46 -34 -63q-17 -26 -60 -26q-42 0 -42 31t36 118q13 30 70 30q55 0 55 -28zM494 982q0 -10 -24 -61q-24 -47 -34 -64q-18 -26 -61 -26q-42 0 -42 32q0 30 36 116q13 31 70 31q55 0 55 -28zM934 815q0 -8 -1 -13q-7 -21 -75 -86
q-352 -343 -552 -617q-22 -33 -67 -96q-45 -59 -93 -59q-34 0 -57 15q-27 17 -27 49v11q2 9 234 293l-90 183l-52 102q-30 60 -46 104q-7 22 -7 38q0 35 35.5 81.5t69.5 46.5q20 0 36 -26q1 -4 28 -78q54 -160 136 -321q48 56 243 283q30 35 110 124q35 37 85 37
q32 0 61 -19.5t29 -51.5z" />
    <glyph glyph-name="afii10097" unicode="&#x44f;" horiz-adv-x="1000" 
 />
    <glyph glyph-name="quoteleft" unicode="&#x2018;" horiz-adv-x="387" 
d="M370 626q0 -34 -26.5 -56t-61.5 -22q-38 0 -54 40q-15 36 -40.5 147t-25.5 145q0 29 39 52q34 19 67 19q53 0 63 -47q2 -22 10 -82q4 -20 17 -101q12 -70 12 -95z" />
    <glyph glyph-name="quoteright" unicode="&#x2019;" horiz-adv-x="402" 
d="M453 891q0 -7 -1 -13q-5 -19 -102 -146q-41 -53 -81 -107q-66 -77 -104 -77q-26 0 -45.5 14t-19.5 40q0 23 34 69q27 36 81 120q51 79 81.5 119t80.5 40q29 0 51 -14q25 -17 25 -45z" />
    <glyph glyph-name="quotedblleft" unicode="&#x201c;" horiz-adv-x="612" 
d="M595 633q0 -33 -26.5 -55.5t-60.5 -22.5q-39 0 -56 41q-15 37 -40.5 147t-25.5 145q0 30 39 51q34 20 66 20q55 0 65 -48q1 -13 9 -82q3 -21 17 -101q13 -73 13 -95zM380 566q0 -33 -26.5 -54.5t-60.5 -21.5q-38 0 -55 40q-14 36 -39.5 147t-25.5 145q0 31 39 52
q34 20 66 20q55 0 63 -48q2 -15 11 -83q1 -8 16 -101q12 -69 12 -96z" />
    <glyph glyph-name="quotedblright" unicode="&#x201d;" horiz-adv-x="592" 
d="M647 833q0 -6 -1 -13q-5 -19 -103 -145q-41 -54 -81 -108q-66 -77 -104 -77q-26 0 -45 14q-21 15 -21 40q0 17 52 95l64 94q59 93 66 101q47 59 96 59q30 0 53.5 -16t23.5 -44zM468 898q0 -6 -1 -12q-5 -19 -103 -146q-92 -120 -120 -150q-32 -35 -65 -35q-26 0 -45.5 14
t-19.5 38q0 25 34 71q29 38 81 121q60 94 66 101q47 58 98 58q29 0 52 -15.5t23 -44.5z" />
    <glyph glyph-name="ellipsis" unicode="&#x2026;" horiz-adv-x="892" 
d="M763 187q0 -14 -34 -83q-31 -64 -43 -82q-25 -34 -81 -34q-55 0 -55 41q0 39 48 155q16 40 92 40q73 0 73 -37zM500 186q0 -14 -33 -82q-30 -62 -44 -83q-24 -35 -80 -35t-56 42q0 39 48 155q17 40 94 40q71 0 71 -37zM237 185q0 -13 -33 -82q-31 -66 -43 -82
q-24 -36 -81 -36q-56 0 -56 42q0 40 48 154q18 41 94 41q71 0 71 -37z" />
    <glyph glyph-name="trademark" unicode="&#x2122;" horiz-adv-x="1138" 
d="M1060 469q0 -27 -28 -51.5t-55 -24.5q-19 0 -28 18q-7 13 -11 120l-3 135q-69 -125 -98 -172q-82 -133 -115 -133q-38 0 -57 118q-7 43 -14 154q-34 -54 -123 -187q-14 -21 -52 -75q-18 -17 -34 -17q-21 0 -35 25q-12 22 -12 45q0 17 16 43q15 18 29 37q117 154 210 325
q23 41 59 41q28 0 33 -34q0 -114 27 -264q22 36 176 315q22 39 58 39q34 0 34 -70q0 -19 -1 -58.5t-1 -59.5q0 -51 3 -88q2 -19 13 -90q9 -57 9 -91zM563 837q0 -30 -61 -42q-9 -2 -85 -8q-61 -173 -80 -335q0 -21 -8 -63q-8 -22 -30.5 -35t-45.5 -13q-36 0 -36 30
q0 50 36 191q8 30 53 201l-79 -23q-47 0 -47 40q0 72 105 103q69 20 163 20q36 0 72 -14q43 -20 43 -52z" />
    <glyph glyph-name="integraltp" unicode="&#x2320;" horiz-adv-x="1000" 
 />
    <glyph glyph-name="NULL" horiz-adv-x="0" 
 />
    <glyph glyph-name="glyph4" horiz-adv-x="1000" 
 />
    <glyph glyph-name="glyph162" horiz-adv-x="443" 
 />
    <glyph glyph-name="glyph163" horiz-adv-x="443" 
 />
    <glyph glyph-name="glyph109" horiz-adv-x="443" 
 />
    <glyph glyph-name="glyph110" horiz-adv-x="443" 
 />
    <glyph glyph-name="ch261" horiz-adv-x="443" 
 />
    </font>
</defs>
</svg>
